<svg width="32" height="32" viewBox="0 0 32 32" fill="none" xmlns="http://www.w3.org/2000/svg">
<g clip-path="url(#clip0_78_833)">
<path d="M30.2607 13.0205C28.5909 10.7828 26.1731 9.16885 23.2402 8.28431C20.36 7.41528 17.0173 7.27561 13.7553 7.89945C10.9651 8.42707 8.69013 9.61268 7.34313 11.2638C6.00855 12.9057 5.75405 14.8393 6.69136 16.7139C7.53556 18.4054 9.15258 19.7182 11.3717 20.4755C13.6032 21.239 16.2103 21.3446 18.6622 20.7828C20.6548 20.3235 22.1787 19.3768 22.9546 18.1354C23.6623 17.0025 23.6561 15.7517 22.9608 14.6996C22.4922 13.9982 21.3811 13.0919 19.9316 12.6388C18.954 12.3346 17.9608 12.2787 16.9738 12.4805C15.3134 12.8219 14.944 13.4799 14.8571 13.9237C14.8478 13.9609 14.8571 13.9951 14.882 14.0354C14.9347 14.1316 15.0806 14.1937 15.2296 14.1937C16.0924 14.1968 16.9242 14.5879 17.2656 15.1527C17.7156 15.8914 17.0887 16.5401 15.9745 16.7822C14.8478 17.0274 12.8708 16.627 11.9645 15.0007C11.7069 14.5382 11.5765 13.6909 12.0576 12.8405C12.4704 12.108 13.4574 11.1521 15.8565 10.6741C17.5635 10.3327 19.3544 10.432 21.0552 10.9566C23.4295 11.6921 25.0434 13.0516 25.7697 14.0944C26.828 15.6183 26.9335 17.4215 26.018 19.0541C24.9875 20.8852 22.8398 21.9125 19.9534 22.5954C16.62 23.3868 13.0291 23.2285 9.9285 22.1515C6.89931 21.0963 4.65225 19.6251 3.6001 17.3688C2.44243 14.8827 2.88626 12.3656 4.74536 10.2676C6.50204 8.28431 9.3388 6.88144 12.7404 6.24829C13.2867 6.14898 13.8267 6.06518 14.373 6C13.1563 6.02483 11.9304 6.14898 10.723 6.37244C2.97626 7.80013 -1.78167 13.1105 0.629883 18.6692C3.31456 24.861 13.4481 28.5048 22.5294 26.2484C26.8994 25.1652 29.8944 23.1323 31.2259 20.6835C32.4922 18.3495 32.2284 15.6555 30.2607 13.0205Z" fill="white"/>
</g>
<defs>
<clipPath id="clip0_78_833">
<rect width="32" height="32" fill="white"/>
</clipPath>
</defs>
</svg>
