<svg width="32" height="32" viewBox="0 0 32 32" fill="none" xmlns="http://www.w3.org/2000/svg">
<path fill-rule="evenodd" clip-rule="evenodd" d="M25.9884 27.7368L28.1527 25.5724L29.1956 28.7797L25.9884 27.7368ZM19.5927 18.5804L20.8305 17.3426L27.1113 23.6248L25.8764 24.8611L19.5927 18.5804ZM24.0393 26.6982L17.7585 20.4146L18.9949 19.1768L25.2771 25.459L24.0393 26.6982ZM15.3251 17.9826L16.5629 16.7448L17.7993 17.9811L16.5614 19.219L15.3251 17.9826ZM9.08072 26.6997L7.84435 25.4633L14.128 19.1797L15.3644 20.4146L9.08072 26.6997ZM6.00726 23.6262L12.2924 17.3426L13.5302 18.5804L7.24653 24.8655L6.00726 23.6262ZM3.92435 28.7826L4.96726 25.5753L7.13308 27.7397L3.92435 28.7826ZM14.7258 14.9077L15.9651 16.147L14.7258 17.3848L13.488 16.147L14.7258 14.9077ZM16.5614 13.0735L17.7993 14.3113L16.5629 15.5491L15.3251 14.3113L16.5614 13.0735ZM19.6334 16.147L18.3971 17.3833L17.1607 16.147L18.3971 14.9091L19.6334 16.147ZM29.1985 23.3179V23.3193L22.0262 16.147L27.9913 10.1819L26.7942 8.98623L20.8305 14.9499L19.5927 13.7135L25.5578 7.74841L24.96 7.15059L18.9949 13.1157L17.7585 11.8779L23.7222 5.91423L22.5265 4.71714L16.5614 10.6822L10.5949 4.71423L9.39926 5.91132L15.3658 11.8779L14.128 13.1157L8.16144 7.14768L7.56363 7.7455L13.5302 13.7135L12.2924 14.9499L6.32581 8.98332L5.13017 10.179L11.0967 16.147L3.9229 23.3193H3.92144V23.3222L3.91999 23.3237H3.92144L1.29163 31.4168L9.38326 28.787H9.38472L9.38763 28.7855H9.38617L16.5614 21.6102L23.7324 28.7826V28.784H23.7353L23.7367 28.7855V28.784L31.8284 31.4153L29.2 23.3208L29.1985 23.3179ZM3.03708 8.08732L3.33672 8.38696L8.80144 2.92223L8.50181 2.62114C8.50181 2.62114 5.81526 -1.00068 2.61381 2.19932C1.64363 3.1695 1.30763 4.0975 1.30763 4.91787C1.30763 6.77677 3.03708 8.08732 3.03708 8.08732ZM30.0844 8.08877C30.0844 8.08877 33.7062 5.40223 30.5062 2.20223C29.536 1.23205 28.6094 0.894593 27.7876 0.894593C25.9287 0.894593 24.6182 2.6255 24.6182 2.6255L24.32 2.92514L29.7833 8.38841L30.0844 8.08877Z" fill="white"/>
</svg>
