<?xml version="1.0" encoding="UTF-8"?>
<svg width="1108px" height="394px" viewBox="0 0 1108 394" version="1.1" xmlns="http://www.w3.org/2000/svg" xmlns:xlink="http://www.w3.org/1999/xlink">
    <!-- Generator: Sketch 48.1 (47250) - http://www.bohemiancoding.com/sketch -->
    <title>client-playbook</title>
    <desc>Created with Sketch.</desc>
    <defs></defs>
    <g id="Page-1" stroke="none" stroke-width="1" fill="none" fill-rule="evenodd">
        <g id="client-playbook" fill="#BBBDBF">
            <path d="M150.351253,205.625194 L126.046776,205.625194 L126.046776,237.123796 C126.046776,248.789945 133.435337,251.123174 151.712303,251.900918 L151.712303,264.733681 L70.6325693,264.733681 L70.6325693,251.900918 C85.2152552,251.31761 88.520664,248.789945 88.520664,237.123796 L88.520664,140.683633 C88.520664,129.017484 85.2152552,126.489818 70.6325693,125.906511 L70.6325693,113.073747 L149.767945,113.073747 C192.543824,113.073747 210.043047,133.489508 210.043047,158.766163 C210.043047,187.348228 191.182773,205.625194 150.351253,205.625194 Z M126.046776,127.656433 L126.046776,192.014687 L140.046154,192.014687 C161.434094,192.014687 171.544756,180.931846 171.544756,159.155035 C171.544756,140.489197 159.684172,127.656433 138.685104,127.656433 L126.046776,127.656433 Z M267.01274,124.156589 L267.01274,241.790255 C267.01274,250.734303 270.512585,251.706482 279.456632,252.873097 L279.456632,264.733681 L219.570402,264.733681 L219.570402,252.873097 C228.514449,251.706482 232.014294,250.734303 232.014294,241.790255 L232.014294,131.934021 L220.542581,122.017795 L220.542581,115.406977 L260.401923,107.240673 L267.984919,107.240673 L267.01274,124.156589 Z M336.815197,245.678972 C341.676092,245.678972 346.925859,243.929049 351.592319,241.012512 L351.592319,211.458269 L333.89866,218.069086 C327.287842,220.791188 324.954612,224.485468 324.954612,231.290722 C324.954612,239.651461 329.621072,245.678972 336.815197,245.678972 Z M386.590765,198.431069 L386.590765,234.207259 C386.590765,242.762434 387.174073,247.428894 393.007147,247.428894 C394.757069,247.428894 398.645786,247.040022 401.562323,246.262279 L403.506681,255.400762 C396.701427,262.01158 385.035279,266.678039 374.924616,266.678039 C362.480724,266.678039 356.064343,260.067222 352.175626,249.567688 C344.981501,257.539556 332.732045,266.094732 318.538231,266.094732 C300.844572,266.094732 289.956166,255.595198 289.956166,238.873718 C289.956166,221.374495 301.622315,216.319164 316.593873,211.652704 L351.592319,200.764299 L351.592319,191.042508 C351.592319,175.487643 345.95368,168.876826 336.426325,168.876826 C329.426636,168.876826 325.732356,173.543285 325.732356,181.126282 C325.732356,185.014998 326.315663,188.903714 327.287842,193.959045 L303.761109,197.070018 C298.316906,194.931225 295.400369,190.264765 295.400369,184.237255 C295.400369,165.960288 314.455079,156.627369 340.315042,156.627369 C368.897106,156.627369 386.590765,165.182545 386.590765,198.431069 Z M450.171276,265.122553 L407.784269,178.209745 C405.645475,173.932157 403.701117,172.959978 396.506992,170.432312 L396.506992,158.571727 L460.67081,158.571727 L460.67081,170.432312 C450.365712,171.793363 447.254739,172.765542 447.254739,177.432001 C447.254739,178.987488 447.449175,180.154103 448.615789,182.681768 L467.476063,227.790877 L486.141901,182.681768 C487.11408,180.348539 487.502952,178.987488 487.502952,177.432001 C487.502952,172.765542 484.391979,171.793363 474.086881,170.432312 L474.086881,158.571727 L517.057196,158.571727 L517.057196,170.432312 C509.86307,172.959978 507.918712,173.932157 505.779918,178.209745 L457.365401,285.538313 C448.032482,306.148509 438.699563,312.759327 425.283492,312.759327 C416.145009,312.759327 409.339755,309.453918 406.81209,305.370766 L406.81209,288.065979 L421.005904,288.065979 C434.421975,288.065979 441.032793,286.510492 446.865867,272.70555 L450.171276,265.122553 Z M529.112216,131.934021 L517.640503,122.017795 L517.640503,115.406977 L557.499845,107.240673 L565.082841,107.240673 L564.110662,124.156589 L564.110662,175.487643 C570.72148,164.404802 582.193193,156.627369 597.553622,156.627369 C625.357943,156.627369 642.079423,175.876515 642.079423,206.791809 C642.079423,244.512357 615.441717,266.678039 581.026578,266.678039 C558.472024,266.678039 542.528287,262.594887 529.112216,253.456404 L529.112216,131.934021 Z M581.026578,253.067533 C596.775879,253.067533 605.719926,238.484847 605.719926,216.708036 C605.719926,192.986866 595.8037,179.376359 580.248835,179.376359 C573.832453,179.376359 568.971558,180.542974 564.110662,184.431691 L564.110662,233.040644 C564.110662,246.067843 569.554865,253.067533 581.026578,253.067533 Z M715.381725,253.067533 C728.992232,253.067533 732.686512,238.679282 732.686512,217.291343 C732.686512,187.931535 725.686823,170.237876 710.520829,170.237876 C696.910322,170.237876 693.216042,184.626126 693.216042,206.014066 C693.216042,235.373874 700.215731,253.067533 715.381725,253.067533 Z M710.909701,266.678039 C677.272305,266.678039 655.68993,243.734614 655.68993,213.597063 C655.68993,178.598616 680.77215,156.627369 714.992853,156.627369 C748.630249,156.627369 770.212624,179.570795 770.212624,209.708346 C770.212624,244.706793 745.130404,266.678039 710.909701,266.678039 Z M843.514925,253.067533 C857.125432,253.067533 860.819713,238.679282 860.819713,217.291343 C860.819713,187.931535 853.820023,170.237876 838.65403,170.237876 C825.043523,170.237876 821.349243,184.626126 821.349243,206.014066 C821.349243,235.373874 828.348932,253.067533 843.514925,253.067533 Z M839.042902,266.678039 C805.405506,266.678039 783.823131,243.734614 783.823131,213.597063 C783.823131,178.598616 808.905351,156.627369 843.126054,156.627369 C876.763449,156.627369 898.345825,179.570795 898.345825,209.708346 C898.345825,244.706793 873.263605,266.678039 839.042902,266.678039 Z M956.093261,207.375117 L986.036376,185.014998 C990.5084,181.709589 991.675015,179.376359 991.675015,177.237566 C991.675015,172.571106 989.341785,171.793363 979.036687,170.432312 L979.036687,158.571727 L1031.72879,158.571727 L1031.72879,170.432312 C1023.75692,172.765542 1019.47934,175.487643 1012.28521,180.73741 L989.730657,197.264454 L1037.36743,255.011891 L1037.36743,264.733681 L1000.03575,264.733681 L956.093261,207.375117 Z M955.315518,124.156589 L955.315518,241.790255 C955.315518,250.734303 958.815362,251.706482 967.75941,252.873097 L967.75941,264.733681 L907.873179,264.733681 L907.873179,252.873097 C916.817227,251.706482 920.317071,250.734303 920.317071,241.790255 L920.317071,131.934021 L908.845358,122.017795 L908.845358,115.406977 L948.7047,107.240673 L956.287697,107.240673 L955.315518,124.156589 Z" id="Playbook"></path>
        </g>
    </g>
</svg>