<?xml version="1.0" encoding="UTF-8"?>
<svg width="22px" height="22px" viewBox="0 0 22 22" version="1.1" xmlns="http://www.w3.org/2000/svg" xmlns:xlink="http://www.w3.org/1999/xlink">
    <!-- Generator: Sketch 48.1 (47250) - http://www.bohemiancoding.com/sketch -->
    <title>Fill 1</title>
    <desc>Created with Sketch.</desc>
    <defs></defs>
    <g id="Page-1" stroke="none" stroke-width="1" fill="none" fill-rule="evenodd">
        <path d="M17.867,19.069 L19.355,17.581 L20.072,19.786 L17.867,19.069 Z M13.47,12.774 L14.321,11.923 L18.639,16.242 L17.79,17.092 L13.47,12.774 Z M16.527,18.355 L12.209,14.035 L13.059,13.184 L17.378,17.503 L16.527,18.355 Z M10.536,12.363 L11.387,11.512 L12.237,12.362 L11.386,13.213 L10.536,12.363 Z M6.243,18.356 L5.393,17.506 L9.713,13.186 L10.563,14.035 L6.243,18.356 Z M4.13,16.243 L8.451,11.923 L9.302,12.774 L4.982,17.095 L4.13,16.243 Z M2.698,19.788 L3.415,17.583 L4.904,19.071 L2.698,19.788 Z M10.124,10.249 L10.976,11.101 L10.124,11.952 L9.273,11.101 L10.124,10.249 Z M11.386,8.988 L12.237,9.839 L11.387,10.69 L10.536,9.839 L11.386,8.988 Z M13.498,11.101 L12.648,11.951 L11.798,11.101 L12.648,10.25 L13.498,11.101 Z M20.074,16.031 L20.074,16.032 L15.143,11.101 L19.244,7 L18.421,6.178 L14.321,10.278 L13.47,9.428 L17.571,5.327 L17.16,4.916 L13.059,9.017 L12.209,8.166 L16.309,4.066 L15.487,3.243 L11.386,7.344 L7.284,3.241 L6.462,4.064 L10.564,8.166 L9.713,9.017 L5.611,4.914 L5.2,5.325 L9.302,9.428 L8.451,10.278 L4.349,6.176 L3.527,6.998 L7.629,11.101 L2.697,16.032 L2.696,16.032 L2.696,16.034 L2.695,16.035 L2.696,16.035 L0.888,21.599 L6.451,19.791 L6.452,19.791 L6.454,19.79 L6.453,19.79 L11.386,14.857 L16.316,19.788 L16.316,19.789 L16.318,19.789 L16.319,19.79 L16.319,19.789 L21.882,21.598 L20.075,16.033 L20.074,16.031 Z M2.088,5.56 L2.294,5.766 L6.051,2.009 L5.845,1.802 C5.845,1.802 3.998,-0.688 1.797,1.512 C1.13,2.179 0.899,2.817 0.899,3.381 C0.899,4.659 2.088,5.56 2.088,5.56 Z M20.683,5.561 C20.683,5.561 23.173,3.714 20.973,1.514 C20.306,0.847 19.669,0.615 19.104,0.615 C17.826,0.615 16.925,1.805 16.925,1.805 L16.72,2.011 L20.476,5.767 L20.683,5.561 Z" id="Fill-1" fill="#FFFFFF"></path>
    </g>
</svg>