<svg width="32" height="32" viewBox="0 0 32 32" fill="none" xmlns="http://www.w3.org/2000/svg">
<path fill-rule="evenodd" clip-rule="evenodd" d="M9.5102 1.95918C10.0512 1.95918 10.4898 2.39776 10.4898 2.93878V25.7959C10.4898 26.3369 10.0512 26.7755 9.5102 26.7755C8.96919 26.7755 8.53061 26.3369 8.53061 25.7959V2.93878C8.53061 2.39776 8.96919 1.95918 9.5102 1.95918ZM6.2449 5.22449C6.78591 5.22449 7.22449 5.66307 7.22449 6.20408V18.6122C7.22449 19.1533 6.78591 19.5918 6.2449 19.5918C5.70388 19.5918 5.26531 19.1533 5.26531 18.6122V6.20408C5.26531 5.66307 5.70388 5.22449 6.2449 5.22449ZM2.97959 6.53061C3.52061 6.53061 3.95918 6.96919 3.95918 7.5102V16C3.95918 16.541 3.52061 16.9796 2.97959 16.9796C2.43858 16.9796 2 16.541 2 16V7.5102C2 6.96919 2.43858 6.53061 2.97959 6.53061ZM12.7755 4.57143C13.3165 4.57143 13.7551 5.01001 13.7551 5.55102V23.8367C13.7551 24.3777 13.3165 24.8163 12.7755 24.8163C12.2345 24.8163 11.7959 24.3777 11.7959 23.8367V5.55102C11.7959 5.01001 12.2345 4.57143 12.7755 4.57143ZM16.0408 6.53061C16.5818 6.53061 17.0204 6.96919 17.0204 7.5102V31.0204C17.0204 31.5614 16.5818 32 16.0408 32C15.4998 32 15.0612 31.5614 15.0612 31.0204V7.5102C15.0612 6.96919 15.4998 6.53061 16.0408 6.53061ZM19.3061 3.26531C19.8471 3.26531 20.2857 3.70388 20.2857 4.2449V25.1429C20.2857 25.6839 19.8471 26.1224 19.3061 26.1224C18.7651 26.1224 18.3265 25.6839 18.3265 25.1429V4.2449C18.3265 3.70388 18.7651 3.26531 19.3061 3.26531ZM22.5714 0C23.1124 0 23.551 0.438578 23.551 0.979592V21.8776C23.551 22.4186 23.1124 22.8571 22.5714 22.8571C22.0304 22.8571 21.5918 22.4186 21.5918 21.8776V0.979592C21.5918 0.438578 22.0304 0 22.5714 0ZM25.8367 1.95918C26.3777 1.95918 26.8163 2.39776 26.8163 2.93878V18.6122C26.8163 19.1533 26.3777 19.5918 25.8367 19.5918C25.2957 19.5918 24.8571 19.1533 24.8571 18.6122V2.93878C24.8571 2.39776 25.2957 1.95918 25.8367 1.95918ZM29.102 7.83673C29.6431 7.83673 30.0816 8.27531 30.0816 8.81633V16.6531C30.0816 17.1941 29.6431 17.6327 29.102 17.6327C28.561 17.6327 28.1224 17.1941 28.1224 16.6531V8.81633C28.1224 8.27531 28.561 7.83673 29.102 7.83673Z" fill="white"/>
</svg>
