<svg width="32" height="32" viewBox="0 0 32 32" fill="none" xmlns="http://www.w3.org/2000/svg">
<g clip-path="url(#clip0_78_834)">
<path fill-rule="evenodd" clip-rule="evenodd" d="M17.6028 0.227236L16.9466 8.33245C16.636 8.2948 16.3214 8.27463 16 8.27463C15.6007 8.27463 15.2081 8.30421 14.8248 8.36338L14.451 4.43313C14.4389 4.31077 14.5371 4.2032 14.6608 4.20454H15.3317L15.0077 0.227236C14.997 0.104878 15.0938 0 15.2161 0H17.3916C17.514 0 17.6095 0.104878 17.6001 0.227236H17.6028ZM12.1115 0.62927C12.0792 0.510946 11.9528 0.446405 11.8372 0.488088L9.792 1.233C9.67636 1.27468 9.62258 1.40644 9.67369 1.51804L11.337 5.14442L10.705 5.373C10.5893 5.41468 10.5329 5.5478 10.5867 5.66074L12.2809 9.22658C12.8954 8.88777 13.5609 8.63364 14.2642 8.47228L12.1115 0.62927ZM7.09069 2.88684L11.7968 9.51707C11.1998 9.9056 10.6606 10.3735 10.1927 10.9074L7.37844 8.13479C7.2897 8.0474 7.29642 7.90353 7.39054 7.8242L7.90552 7.39392L5.10337 4.55548C5.01732 4.46809 5.02404 4.32691 5.11816 4.24757L6.78412 2.84785C6.87825 2.76852 7.01943 2.78734 7.09069 2.88684ZM3.14294 6.72566C3.0421 6.65708 2.90361 6.68801 2.84175 6.79289L1.75397 8.67801C1.69212 8.78423 1.73515 8.92 1.8454 8.97244L5.45028 10.6814L5.11278 11.2623C5.05093 11.3699 5.09396 11.507 5.20691 11.5581L8.79834 13.1999C9.0592 12.5316 9.40613 11.9091 9.83102 11.347L3.14294 6.72566ZM0.487358 11.8485C0.508872 11.7276 0.627197 11.6509 0.746867 11.6819L8.61278 13.7364C8.40975 14.4006 8.29546 15.1038 8.27932 15.8313L4.34099 15.5153C4.21728 15.5059 4.12988 15.3916 4.1514 15.2692L4.26972 14.609L0.299115 14.2365C0.176756 14.2244 0.0907013 14.1116 0.112215 13.9905L0.488703 11.8472L0.487358 11.8485ZM0.190202 17.1611C0.0678429 17.1732 -0.0182115 17.2861 0.00330211 17.4071L0.381135 19.5504C0.402649 19.6714 0.522318 19.7481 0.640643 19.7172L4.49964 18.7087L4.61528 19.3689C4.6368 19.4912 4.75916 19.5679 4.87748 19.5342L8.68404 18.4828C8.45949 17.8226 8.321 17.1247 8.2847 16.3987L0.190202 17.1611ZM1.44875 22.7936C1.3869 22.6874 1.42992 22.5516 1.54018 22.4991L8.88439 19.0166C9.16409 19.6755 9.53387 20.2872 9.97618 20.8358L6.75724 23.1257C6.65639 23.1983 6.5152 23.166 6.45469 23.0598L6.11989 22.4776L2.83907 24.746C2.73822 24.8158 2.59972 24.7849 2.53788 24.6787L1.44875 22.7936ZM10.3473 21.2661L4.63411 27.0532C4.54805 27.1406 4.55477 27.2818 4.6489 27.3612L6.3162 28.7596C6.41033 28.8388 6.55151 28.82 6.62277 28.7205L8.93013 25.4666L9.44373 25.8996C9.53787 25.9789 9.68178 25.9601 9.75165 25.8579L11.9917 22.608C11.384 22.2369 10.8314 21.7837 10.3473 21.2661ZM9.2192 30.5572C9.10356 30.5156 9.04978 30.3838 9.10089 30.2722L12.4892 22.8796C13.1132 23.1983 13.7854 23.4363 14.4927 23.5761L13.499 27.3974C13.4682 27.5172 13.3404 27.5844 13.2248 27.5413L12.5941 27.31L11.5373 31.157C11.505 31.2753 11.3787 31.3398 11.263 31.2981L9.21787 30.5546L9.2192 30.5572ZM15.0548 23.6662L14.3986 31.7728C14.3892 31.8951 14.4846 32 14.607 32H16.7826C16.905 32 17.0018 31.8951 16.991 31.7728L16.6669 27.7968H17.3379C17.4616 27.7981 17.5584 27.6919 17.5476 27.5682L17.1739 23.638C16.7907 23.6958 16.398 23.7268 15.9987 23.7268C15.6787 23.7268 15.364 23.7052 15.0534 23.6676L15.0548 23.6662ZM22.9005 1.72646C22.9516 1.61485 22.8964 1.48444 22.7822 1.4414L20.7371 0.697844C20.6228 0.656162 20.495 0.720702 20.4628 0.839027L19.4059 4.68591L18.7753 4.45464C18.6596 4.41162 18.5319 4.47884 18.501 4.59852L17.5073 8.41985C18.2146 8.55969 18.8868 8.79768 19.5108 9.11636L22.9005 1.72511V1.72646ZM27.366 4.94811L21.6527 10.7352C21.17 10.2163 20.6174 9.76311 20.0083 9.392L22.2484 6.14211C22.3183 6.04126 22.4621 6.02109 22.5563 6.10177L23.07 6.53473L25.3772 3.28081C25.4485 3.18131 25.5897 3.16249 25.6838 3.24181L27.3511 4.6402C27.4452 4.71953 27.452 4.86205 27.366 4.94811ZM30.4598 9.50222C30.5715 9.44978 30.6132 9.31404 30.5513 9.20782L29.4621 7.32266C29.4004 7.21644 29.2618 7.18551 29.161 7.25543L25.8802 9.52373L25.5453 8.94151C25.4835 8.83398 25.3423 8.80306 25.2428 8.87567L22.0238 11.1655C22.4662 11.7155 22.836 12.3259 23.1156 12.9847L30.4598 9.50222ZM31.6189 12.4523L31.9967 14.5956C32.0182 14.718 31.9308 14.8308 31.8099 14.8416L23.7154 15.6013C23.679 14.8753 23.5405 14.1774 23.316 13.5172L27.1226 12.4671C27.2409 12.4334 27.3632 12.5115 27.3847 12.6324L27.499 13.2926L31.358 12.2842C31.4764 12.2532 31.5961 12.33 31.6176 12.4509L31.6189 12.4523ZM31.2532 20.3195C31.3715 20.3504 31.4912 20.2738 31.5127 20.1528L31.8892 18.0095C31.9107 17.8884 31.8233 17.7756 31.7023 17.7635L27.7316 17.391L27.85 16.7308C27.8715 16.6084 27.7841 16.4955 27.6604 16.4847L23.722 16.1687C23.706 16.8975 23.5916 17.5994 23.3886 18.265L31.2545 20.3181L31.2532 20.3195ZM29.1583 25.2098C29.0964 25.3147 28.958 25.3456 28.8571 25.2771L22.1664 20.6556C22.5913 20.0936 22.9395 19.4711 23.199 18.8028L26.7904 20.4459C26.9034 20.497 26.9477 20.6355 26.8845 20.7417L26.5471 21.3226L30.1519 23.0316C30.2622 23.084 30.3052 23.2198 30.2434 23.326L29.1556 25.2111L29.1583 25.2098ZM20.2032 22.4843L24.9093 29.1158C24.9806 29.2154 25.1204 29.2341 25.2159 29.1548L26.8819 27.7551C26.976 27.6758 26.9828 27.5332 26.8966 27.4472L24.0945 24.6088L24.6095 24.1785C24.7036 24.0992 24.7103 23.9553 24.6216 23.8692L21.8074 21.0967C21.3395 21.6292 20.8003 22.0971 20.2032 22.4857V22.4843ZM20.1629 31.5132C20.0486 31.5549 19.9209 31.4904 19.8886 31.3721L17.7346 23.5304C18.4378 23.3691 19.1034 23.1136 19.7179 22.7761L21.412 26.342C21.4658 26.4535 21.4107 26.588 21.2937 26.6297L20.6618 26.8583L22.325 30.4846C22.3761 30.5963 22.321 30.7267 22.2067 30.7697L20.1616 31.5146L20.1629 31.5132Z" fill="#FFFEFA"/>
</g>
<defs>
<clipPath id="clip0_78_834">
<rect width="32" height="32" fill="white"/>
</clipPath>
</defs>
</svg>
