<svg width="32" height="32" viewBox="0 0 32 32" fill="none" xmlns="http://www.w3.org/2000/svg">
<path d="M13.9039 17.0131C13.9272 17.0131 13.968 17.0189 14.0262 17.0306C14.5619 17.0655 14.952 17.083 15.1965 17.083C17.048 17.083 18.4396 16.6055 19.3712 15.6507C20.3144 14.6958 20.786 13.2693 20.786 11.3712C20.786 9.65939 20.3552 8.34935 19.4934 7.44105C18.6317 6.53275 17.3916 6.0786 15.7729 6.0786H13.9039V17.0131ZM6.42795 28V26.2533L8.54148 26.0611L9.18777 25.5022V6.42795L8.64629 5.9214L6.28821 5.74672V4H15.9476C19.3595 4 21.8399 4.57642 23.3886 5.72926C24.9374 6.8821 25.7118 8.71033 25.7118 11.214C25.7118 13.7293 24.8908 15.6856 23.2489 17.083C21.607 18.4687 19.3071 19.1616 16.3493 19.1616C16.0699 19.1616 15.7263 19.1558 15.3188 19.1441C14.9112 19.1208 14.4396 19.0917 13.9039 19.0568V25.5022L14.4454 26.0611L16.9956 26.2533V28H6.42795Z" fill="white"/>
</svg>
