<svg width="32" height="32" viewBox="0 0 32 32" fill="none" xmlns="http://www.w3.org/2000/svg">
<g clip-path="url(#clip0_78_832)">
<path d="M28.8076 17.9014C27.3618 17.9014 26.1903 18.9961 26.1903 20.339C26.1903 21.682 27.3618 23.3729 28.8076 23.3729C30.2532 23.3729 31.4248 21.6864 31.4248 20.339C31.4248 18.9916 30.2532 17.9014 28.8076 17.9014Z" fill="white"/>
<path d="M2.55516 23.8294C3.53664 23.8294 4.32359 22.267 4.32359 20.339C4.32359 18.4111 3.5278 16.8488 2.55516 16.8488C1.58253 16.8488 0.786743 18.4111 0.786743 20.339C0.786743 22.267 1.58253 23.8294 2.55516 23.8294Z" fill="white"/>
<path d="M10.3762 23.8294C11.8219 23.8294 12.9935 22.267 12.9935 20.339C12.9935 18.4111 11.8219 16.8488 10.3762 16.8488C8.93055 16.8488 7.75897 18.4111 7.75897 20.339C7.75897 22.267 8.93055 23.8294 10.3762 23.8294Z" fill="white"/>
<path d="M19.7643 16.8488C18.8785 16.8488 18.0289 17.2015 17.4025 17.8295C16.7761 18.4574 16.4242 19.3091 16.4242 20.1972C16.4242 22.0454 18.6347 24.0576 20.4783 24.0576C21.3642 24.0576 22.2138 23.7048 22.8401 23.0769C23.4666 22.4489 23.8185 21.5972 23.8185 20.7091C23.8185 18.861 21.6079 16.8509 19.7621 16.8509" fill="white"/>
<path d="M21.5571 7.41711C20.1114 7.41711 18.9398 8.94622 18.9398 10.8343C18.9398 12.7224 20.1158 14.2515 21.5571 14.2515C22.9983 14.2515 24.1743 12.7224 24.1743 10.8343C24.1743 8.94622 23.0027 7.41711 21.5571 7.41711Z" fill="white"/>
<path d="M2.55312 13.1346C3.23904 13.1346 3.89689 12.8614 4.38192 12.3752C4.86694 11.889 5.13943 11.2294 5.13943 10.5418C5.13943 9.85409 4.86694 9.19464 4.38192 8.70841C3.89689 8.22214 3.23904 7.94897 2.55312 7.94897C1.86718 7.94897 1.20934 8.22214 0.724311 8.70841C0.239283 9.19464 -0.0332031 9.85409 -0.0332031 10.5418C-0.0332031 11.2294 0.239283 11.889 0.724311 12.3752C1.20934 12.8614 1.86718 13.1346 2.55312 13.1346Z" fill="white"/>
<path d="M12.0562 8.00891C9.75283 8.00891 7.88495 9.17016 7.88495 10.6017C7.88495 12.0333 9.75283 13.1945 12.0562 13.1945C14.3596 13.1945 16.2253 12.031 16.2253 10.5995C16.2253 9.16788 14.3684 8.00891 12.0562 8.00891Z" fill="white"/>
<path d="M10.752 4.35235C12.1977 4.35235 13.3693 3.49252 13.3693 2.43546C13.3693 1.37839 12.1977 0.518555 10.752 0.518555C9.30639 0.518555 8.13477 1.37396 8.13477 2.43323C8.13477 3.49252 9.30639 4.35013 10.752 4.35013" fill="white"/>
<path d="M19.6494 0.516357C17.346 0.516357 15.4737 1.37398 15.4737 2.43547C15.4737 3.49696 17.3416 4.35237 19.645 4.35237C21.9483 4.35237 23.8162 3.49475 23.8162 2.43547C23.8162 1.37619 21.9528 0.516357 19.6494 0.516357Z" fill="white"/>
<path d="M11.2251 26.2782C9.35497 26.2782 7.84076 27.4394 7.84076 28.871C7.84076 30.3025 9.35715 31.4638 11.2251 31.4638C13.093 31.4638 14.6094 30.3025 14.6094 28.871C14.6094 27.4394 13.0952 26.2782 11.2251 26.2782Z" fill="white"/>
<path d="M20.7214 26.7944C19.2934 26.7944 18.1351 27.7939 18.1351 29.0238C18.1351 30.2537 19.2934 31.2532 20.7214 31.2532C22.1494 31.2532 23.8161 30.256 23.8161 29.0238C23.8161 27.7917 22.145 26.7944 20.7214 26.7944Z" fill="white"/>
<path d="M30.6754 10.8344C30.6754 12.2659 29.8399 13.4271 28.8076 13.4271C27.7752 13.4271 26.9397 12.2659 26.9397 10.8344C26.9397 9.40279 27.7752 8.24377 28.8076 8.24377C29.8399 8.24377 30.6754 9.40498 30.6754 10.8366" fill="white"/>
</g>
<defs>
<clipPath id="clip0_78_832">
<rect width="32" height="32" fill="white"/>
</clipPath>
</defs>
</svg>
