<svg width="32" height="32" viewBox="0 0 32 32" fill="none" xmlns="http://www.w3.org/2000/svg">
<path fill-rule="evenodd" clip-rule="evenodd" d="M16.1551 31.875C16.4097 31.746 16.8475 31.5225 17.4073 31.2305C19.9699 29.8936 25.0881 27.1207 26.884 25.3997C29.3188 23.0664 29.7128 19 29.7128 19V1.5V0H28.2128H16.0927H15.9073H3.78717H2.28717V1.5V19C2.28717 19 2.68116 23.0664 5.11598 25.3997C6.91185 27.1207 12.0301 29.8936 14.5927 31.2305C15.1524 31.5225 15.5902 31.746 15.8449 31.875L15.9073 31.9066V32L16 31.9534L16.0927 32V31.9066L16.1551 31.875ZM16 30.2701C16.9407 29.7867 18.6288 28.9037 20.388 27.9077C22.6834 26.6082 24.8943 25.2288 25.8462 24.3167C26.7982 23.4044 27.4083 22.0837 27.7779 20.8834C27.9579 20.299 28.0701 19.7784 28.1368 19.4068C28.17 19.2218 28.1916 19.0758 28.2044 18.9798C28.2078 18.9547 28.2106 18.9331 28.2128 18.9151V1.5H16.0927H15.9073H3.78717V18.9151C3.78939 18.9331 3.79216 18.9547 3.79554 18.9798C3.80841 19.0758 3.82996 19.2218 3.86318 19.4068C3.92988 19.7784 4.04212 20.299 4.22209 20.8834C4.59169 22.0837 5.20176 23.4044 6.15382 24.3167C7.10565 25.2288 9.31653 26.6082 11.6119 27.9077C13.3712 28.9037 15.0593 29.7867 16 30.2701ZM5.00412 3H26.8524V6H5.00412V3ZM26.8524 7.50366H5.00412V10.5037H26.8524V7.50366ZM26.7128 14.0815L26.1741 13.0381L25.4241 14.4908V22.4799C25.8105 21.8916 26.1175 21.1784 26.3443 20.442C26.5028 19.9271 26.602 19.4672 26.6604 19.1417C26.6851 19.0039 26.702 18.8933 26.7128 18.8164V14.0815ZM24.0172 13.1364V23.879C23.6037 24.1832 23.0944 24.5261 22.5172 24.8928V13.1364L23.2672 11.6837L24.0172 13.1364ZM21.1103 25.7555V16.0096L20.3603 14.5569L19.6103 16.0096V26.6243L19.6491 26.6024C20.1529 26.3171 20.6433 26.0331 21.1103 25.7555ZM18.2034 27.4056C17.6684 27.6978 17.1606 27.9697 16.7034 28.2115V13.1364L17.4534 11.6837L18.2034 13.1364V27.4056ZM15.2965 28.2115V16.0097L14.5465 14.557L13.7965 16.0097V27.4056C14.3316 27.6978 14.8393 27.9697 15.2965 28.2115ZM12.3896 26.5235H12.2118C11.7568 26.2648 11.3136 26.0075 10.8896 25.7555V13.1364L11.6396 11.6837L12.3896 13.1364V26.5235ZM9.48276 24.8928V16.0096L8.73276 14.5569L7.98276 16.0096V23.879C8.39631 24.1832 8.90559 24.5261 9.48276 24.8928ZM6.57587 14.4908V22.4799C6.18945 21.8916 5.88243 21.1784 5.65567 20.442C5.49714 19.9271 5.398 19.4672 5.33958 19.1417C5.31483 19.0039 5.29794 18.8933 5.28717 18.8164V14.0815L5.82587 13.0381L6.57587 14.4908Z" fill="white"/>
</svg>
