<svg width="38" height="38" viewBox="0 0 38 38" fill="none" xmlns="http://www.w3.org/2000/svg">
<path d="M34.209 21.2579C32.4922 21.2579 31.101 22.5579 31.101 24.1526C31.101 25.7474 32.4922 27.7553 34.209 27.7553C35.9257 27.7553 37.317 25.7526 37.317 24.1526C37.317 22.5526 35.9257 21.2579 34.209 21.2579Z" fill="white"/>
<path d="M3.03422 28.2974C4.19972 28.2974 5.13422 26.4421 5.13422 24.1526C5.13422 21.8632 4.18922 20.0079 3.03422 20.0079C1.87922 20.0079 0.934219 21.8632 0.934219 24.1526C0.934219 26.4421 1.87922 28.2974 3.03422 28.2974Z" fill="white"/>
<path d="M12.3217 28.2974C14.0385 28.2974 15.4297 26.4421 15.4297 24.1526C15.4297 21.8632 14.0385 20.0079 12.3217 20.0079C10.605 20.0079 9.21375 21.8632 9.21375 24.1526C9.21375 26.4421 10.605 28.2974 12.3217 28.2974Z" fill="white"/>
<path d="M23.4701 20.0079C22.4182 20.0079 21.4093 20.4268 20.6654 21.1725C19.9216 21.9182 19.5037 22.9296 19.5037 23.9842C19.5037 26.1789 22.1287 28.5684 24.318 28.5684C25.3699 28.5684 26.3788 28.1495 27.1226 27.4038C27.8665 26.6581 28.2844 25.6467 28.2844 24.5921C28.2844 22.3974 25.6594 20.0105 23.4675 20.0105" fill="white"/>
<path d="M25.599 8.80789C23.8822 8.80789 22.491 10.6237 22.491 12.8658C22.491 15.1079 23.8875 16.9237 25.599 16.9237C27.3105 16.9237 28.707 15.1079 28.707 12.8658C28.707 10.6237 27.3157 8.80789 25.599 8.80789" fill="white"/>
<path d="M3.03178 15.5974C3.84632 15.5974 4.62751 15.273 5.20348 14.6956C5.77945 14.1182 6.10303 13.335 6.10303 12.5184C6.10303 11.7018 5.77945 10.9187 5.20348 10.3413C4.62751 9.76386 3.84632 9.43947 3.03178 9.43947C2.21723 9.43947 1.43604 9.76386 0.860074 10.3413C0.284103 10.9187 -0.0394745 11.7018 -0.0394745 12.5184C-0.0394745 13.335 0.284103 14.1182 0.860074 14.6956C1.43604 15.273 2.21723 15.5974 3.03178 15.5974" fill="white"/>
<path d="M14.3168 9.51052C11.5815 9.51052 9.36339 10.8895 9.36339 12.5895C9.36339 14.2895 11.5815 15.6684 14.3168 15.6684C17.052 15.6684 19.2675 14.2868 19.2675 12.5868C19.2675 10.8868 17.0625 9.51052 14.3168 9.51052Z" fill="white"/>
<path d="M12.768 5.16842C14.4847 5.16842 15.876 4.14737 15.876 2.89211C15.876 1.63684 14.4847 0.615789 12.768 0.615789C11.0513 0.615789 9.66 1.63158 9.66 2.88947C9.66 4.14737 11.0513 5.16579 12.768 5.16579" fill="white"/>
<path d="M23.3336 0.613159C20.5984 0.613159 18.375 1.63158 18.375 2.89211C18.375 4.15263 20.5931 5.16842 23.3284 5.16842C26.0636 5.16842 28.2817 4.15 28.2817 2.89211C28.2817 1.63421 26.0689 0.613159 23.3336 0.613159Z" fill="white"/>
<path d="M13.3298 31.2053C11.109 31.2053 9.31088 32.5842 9.31088 34.2842C9.31088 35.9842 11.1116 37.3632 13.3298 37.3632C15.5479 37.3632 17.3486 35.9842 17.3486 34.2842C17.3486 32.5842 15.5505 31.2053 13.3298 31.2053" fill="white"/>
<path d="M24.6067 31.8184C22.911 31.8184 21.5355 33.0053 21.5355 34.4658C21.5355 35.9263 22.911 37.1132 24.6067 37.1132C26.3025 37.1132 28.2817 35.929 28.2817 34.4658C28.2817 33.0026 26.2972 31.8184 24.6067 31.8184" fill="white"/>
<path d="M36.4271 12.8658C36.4271 14.5658 35.4349 15.9447 34.209 15.9447C32.9831 15.9447 31.9909 14.5658 31.9909 12.8658C31.9909 11.1658 32.9831 9.78947 34.209 9.78947C35.4349 9.78947 36.4271 11.1684 36.4271 12.8684" fill="white"/>
</svg>
