<?xml version="1.0" encoding="UTF-8"?>
<svg width="300px" height="300px" viewBox="0 0 300 300" version="1.1" xmlns="http://www.w3.org/2000/svg" xmlns:xlink="http://www.w3.org/1999/xlink">
    <!-- Generator: Sketch 48.1 (47250) - http://www.bohemiancoding.com/sketch -->
    <title>Group 5</title>
    <desc>Created with Sketch.</desc>
    <defs></defs>
    <g id="light-on-dark" stroke="none" stroke-width="1" fill="none" fill-rule="evenodd" transform="translate(-50.000000, -50.000000)">
        <g id="Group-5" transform="translate(50.000000, 50.000000)" fill="#FFFFFF">
            <path d="M117.472664,278.637262 C111.720065,277.132949 106.120818,275.240531 100.703575,272.989119 L100.703577,60.2831709 C100.703577,58.3284517 102.263229,56.7438388 104.187157,56.7438388 L196.07964,56.7438388 C198.003568,56.7438388 199.56322,58.3284517 199.56322,60.2831709 L199.56322,272.987327 C194.144628,275.239519 188.543925,277.132547 182.789787,278.637262 L182.789787,217.298082 C182.789787,215.738585 182.333981,214.213092 181.478431,212.909227 L156.819869,175.329421 C156.218833,174.413438 155.436063,173.630668 154.520081,173.029632 C150.826045,170.605735 145.86648,171.635385 143.442582,175.329421 L118.784021,212.909227 C117.92847,214.213092 117.472664,215.738585 117.472664,217.298082 L117.472664,278.637262 Z M92.8655131,269.419827 C49.4216924,247.857719 19.4969793,202.526296 19.4969793,150.093723 C19.4969793,76.7917552 77.9839236,17.3687689 150.131226,17.3687689 C222.278528,17.3687689 280.765472,76.7917552 280.765472,150.093723 C280.765472,202.524548 250.842755,247.854696 207.401284,269.41767 L207.401275,60.2831709 C207.401275,53.9303336 202.332406,48.7803415 196.07964,48.7803415 L104.187157,48.7803415 C97.9343908,48.7803415 92.8655223,53.9303336 92.8655223,60.2831709 L92.8655223,269.419831 Z M125.464742,130.67095 C123.985949,128.41726 121.47164,127.059805 118.776099,127.059805 C114.357821,127.059805 110.776099,130.641527 110.776099,135.059805 L110.776099,181.054637 C110.776099,183.750178 112.133554,186.264487 114.387243,187.74328 C118.081279,190.167178 123.040844,189.137527 125.464742,185.443492 L140.554846,162.446076 C142.303322,159.781388 142.303322,156.333053 140.554846,153.668366 L125.464742,130.67095 Z M174.660652,113.595554 C175.516202,112.291689 175.972008,110.766195 175.972008,109.206699 C175.972008,104.788421 172.390286,101.206699 167.972008,101.206699 L132.290443,101.206699 C130.730947,101.206699 129.205453,101.662504 127.901588,102.518055 C124.207552,104.941953 123.177902,109.901518 125.6018,113.595554 L143.442582,140.785021 C144.043618,141.701003 144.826388,142.483773 145.742371,143.084809 C149.436406,145.508707 154.395971,144.479057 156.819869,140.785021 L174.660652,113.595554 Z M189.592094,135.059805 C189.592094,132.364264 188.234638,129.849954 185.980949,128.371162 C182.286913,125.947264 177.327348,126.976914 174.90345,130.67095 L159.813346,153.668366 C158.064871,156.333053 158.064871,159.781388 159.813346,162.446076 L174.90345,185.443492 C176.382243,187.697181 178.896552,189.054637 181.592094,189.054637 C186.010372,189.054637 189.592094,185.472915 189.592094,181.054637 L189.592094,135.059805 Z M128.918569,77.8780249 C128.794156,77.7061681 128.64319,77.5552021 128.471333,77.4307889 C127.576609,76.783067 126.32621,76.9833014 125.678488,77.8780249 L123.642007,80.6910958 C123.135394,81.3909002 123.135394,82.3368998 123.642007,83.0367042 L125.678488,85.8497751 C125.802902,86.0216319 125.953868,86.1725979 126.125724,86.2970111 C127.020448,86.944733 128.270847,86.7444986 128.918569,85.8497751 L130.95505,83.0367042 C131.461663,82.3368998 131.461663,81.3909002 130.95505,80.6910958 L128.918569,77.8780249 Z M128.918569,92.5382958 C128.794156,92.366439 128.64319,92.215473 128.471333,92.0910598 C127.576609,91.4433379 126.32621,91.6435723 125.678488,92.5382958 L125.045751,93.412321 C124.803509,93.7469397 124.673091,94.1494946 124.673091,94.5625939 C124.673091,95.645943 125.551319,96.5241709 126.634668,96.5241709 L127.96239,96.5241709 C128.375489,96.5241709 128.778044,96.393753 129.112662,96.1515108 C129.990197,95.5162326 130.186585,94.2898555 129.551306,93.412321 L128.918569,92.5382958 Z M134.625606,85.2081604 C134.501193,85.0363036 134.350227,84.8853375 134.17837,84.7609243 C133.283646,84.1132025 132.033247,84.3134369 131.385525,85.2081604 L129.349044,88.0212313 C128.842431,88.7210357 128.842431,89.6670353 129.349044,90.3668397 L131.385525,93.1799106 C131.509939,93.3517674 131.660905,93.5027334 131.832762,93.6271466 C132.727485,94.2748685 133.977884,94.0746341 134.625606,93.1799106 L136.662087,90.3668397 C137.1687,89.6670353 137.1687,88.7210357 136.662087,88.0212313 L134.625606,85.2081604 Z M117.504495,77.8780249 C117.380081,77.7061681 117.229115,77.5552021 117.057259,77.4307889 C116.162535,76.783067 114.912136,76.9833014 114.264414,77.8780249 L112.227933,80.6910958 C111.72132,81.3909002 111.72132,82.3368998 112.227933,83.0367042 L114.264414,85.8497751 C114.388827,86.0216319 114.539793,86.1725979 114.71165,86.2970111 C115.606374,86.944733 116.856773,86.7444986 117.504495,85.8497751 L119.540976,83.0367042 C120.047589,82.3368998 120.047589,81.3909002 119.540976,80.6910958 L117.504495,77.8780249 Z M117.504495,92.5382958 C117.380081,92.366439 117.229115,92.215473 117.057259,92.0910598 C116.162535,91.4433379 114.912136,91.6435723 114.264414,92.5382958 L113.631677,93.412321 C113.389434,93.7469397 113.259016,94.1494946 113.259016,94.5625939 C113.259016,95.645943 114.137244,96.5241709 115.220593,96.5241709 L116.548315,96.5241709 C116.961415,96.5241709 117.36397,96.393753 117.698588,96.1515108 C118.576123,95.5162326 118.77251,94.2898555 118.137232,93.412321 L117.504495,92.5382958 Z M123.211532,85.2081604 C123.087119,85.0363036 122.936152,84.8853375 122.764296,84.7609243 C121.869572,84.1132025 120.619173,84.3134369 119.971451,85.2081604 L117.93497,88.0212313 C117.428357,88.7210357 117.428357,89.6670353 117.93497,90.3668397 L119.971451,93.1799106 C120.095864,93.3517674 120.24683,93.5027334 120.418687,93.6271466 C121.313411,94.2748685 122.56381,94.0746341 123.211532,93.1799106 L125.248013,90.3668397 C125.754626,89.6670353 125.754626,88.7210357 125.248013,88.0212313 L123.211532,85.2081604 Z M151.746717,77.8780249 C151.622304,77.7061681 151.471338,77.5552021 151.299481,77.4307889 C150.404758,76.783067 149.154359,76.9833014 148.506637,77.8780249 L146.470156,80.6910958 C145.963543,81.3909002 145.963543,82.3368998 146.470156,83.0367042 L148.506637,85.8497751 C148.63105,86.0216319 148.782016,86.1725979 148.953873,86.2970111 C149.848596,86.944733 151.098995,86.7444986 151.746717,85.8497751 L153.783198,83.0367042 C154.289811,82.3368998 154.289811,81.3909002 153.783198,80.6910958 L151.746717,77.8780249 Z M151.746717,92.5382958 C151.622304,92.366439 151.471338,92.215473 151.299481,92.0910598 C150.404758,91.4433379 149.154359,91.6435723 148.506637,92.5382958 L147.873899,93.412321 C147.631657,93.7469397 147.501239,94.1494946 147.501239,94.5625939 C147.501239,95.645943 148.379467,96.5241709 149.462816,96.5241709 L150.790538,96.5241709 C151.203637,96.5241709 151.606192,96.393753 151.940811,96.1515108 C152.818345,95.5162326 153.014733,94.2898555 152.379455,93.412321 L151.746717,92.5382958 Z M157.453754,85.2081604 C157.329341,85.0363036 157.178375,84.8853375 157.006518,84.7609243 C156.111795,84.1132025 154.861396,84.3134369 154.213674,85.2081604 L152.177193,88.0212313 C151.67058,88.7210357 151.67058,89.6670353 152.177193,90.3668397 L154.213674,93.1799106 C154.338087,93.3517674 154.489053,93.5027334 154.66091,93.6271466 C155.555634,94.2748685 156.806033,94.0746341 157.453754,93.1799106 L159.490236,90.3668397 C159.996849,89.6670353 159.996849,88.7210357 159.490236,88.0212313 L157.453754,85.2081604 Z M140.332643,77.8780249 C140.20823,77.7061681 140.057264,77.5552021 139.885407,77.4307889 C138.990684,76.783067 137.740284,76.9833014 137.092563,77.8780249 L135.056081,80.6910958 C134.549468,81.3909002 134.549468,82.3368998 135.056081,83.0367042 L137.092563,85.8497751 C137.216976,86.0216319 137.367942,86.1725979 137.539799,86.2970111 C138.434522,86.944733 139.684921,86.7444986 140.332643,85.8497751 L142.369124,83.0367042 C142.875737,82.3368998 142.875737,81.3909002 142.369124,80.6910958 L140.332643,77.8780249 Z M140.332643,92.5382958 C140.20823,92.366439 140.057264,92.215473 139.885407,92.0910598 C138.990684,91.4433379 137.740284,91.6435723 137.092563,92.5382958 L136.459825,93.412321 C136.217583,93.7469397 136.087165,94.1494946 136.087165,94.5625939 C136.087165,95.645943 136.965393,96.5241709 138.048742,96.5241709 L139.376464,96.5241709 C139.789563,96.5241709 140.192118,96.393753 140.526737,96.1515108 C141.404271,95.5162326 141.600659,94.2898555 140.965381,93.412321 L140.332643,92.5382958 Z M146.03968,85.2081604 C145.915267,85.0363036 145.764301,84.8853375 145.592444,84.7609243 C144.697721,84.1132025 143.447322,84.3134369 142.7996,85.2081604 L140.763119,88.0212313 C140.256506,88.7210357 140.256506,89.6670353 140.763119,90.3668397 L142.7996,93.1799106 C142.924013,93.3517674 143.074979,93.5027334 143.246836,93.6271466 C144.141559,94.2748685 145.391958,94.0746341 146.03968,93.1799106 L148.076161,90.3668397 C148.582774,89.6670353 148.582774,88.7210357 148.076161,88.0212313 L146.03968,85.2081604 Z M174.574866,77.8780249 C174.450453,77.7061681 174.299487,77.5552021 174.12763,77.4307889 C173.232906,76.783067 171.982507,76.9833014 171.334785,77.8780249 L169.298304,80.6910958 C168.791691,81.3909002 168.791691,82.3368998 169.298304,83.0367042 L171.334785,85.8497751 C171.459199,86.0216319 171.610165,86.1725979 171.782021,86.2970111 C172.676745,86.944733 173.927144,86.7444986 174.574866,85.8497751 L176.611347,83.0367042 C177.11796,82.3368998 177.11796,81.3909002 176.611347,80.6910958 L174.574866,77.8780249 Z M174.574866,92.5382958 C174.450453,92.366439 174.299487,92.215473 174.12763,92.0910598 C173.232906,91.4433379 171.982507,91.6435723 171.334785,92.5382958 L170.702048,93.412321 C170.459805,93.7469397 170.329388,94.1494946 170.329388,94.5625939 C170.329388,95.645943 171.207615,96.5241709 172.290965,96.5241709 L173.618686,96.5241709 C174.031786,96.5241709 174.434341,96.393753 174.768959,96.1515108 C175.646494,95.5162326 175.842882,94.2898555 175.207603,93.412321 L174.574866,92.5382958 Z M180.281903,85.2081604 C180.15749,85.0363036 180.006524,84.8853375 179.834667,84.7609243 C178.939943,84.1132025 177.689544,84.3134369 177.041822,85.2081604 L175.005341,88.0212313 C174.498728,88.7210357 174.498728,89.6670353 175.005341,90.3668397 L177.041822,93.1799106 C177.166236,93.3517674 177.317202,93.5027334 177.489058,93.6271466 C178.383782,94.2748685 179.634181,94.0746341 180.281903,93.1799106 L182.318384,90.3668397 C182.824997,89.6670353 182.824997,88.7210357 182.318384,88.0212313 L180.281903,85.2081604 Z M163.160792,77.8780249 C163.036378,77.7061681 162.885412,77.5552021 162.713555,77.4307889 C161.818832,76.783067 160.568433,76.9833014 159.920711,77.8780249 L157.88423,80.6910958 C157.377617,81.3909002 157.377617,82.3368998 157.88423,83.0367042 L159.920711,85.8497751 C160.045124,86.0216319 160.19609,86.1725979 160.367947,86.2970111 C161.262671,86.944733 162.51307,86.7444986 163.160792,85.8497751 L165.197273,83.0367042 C165.703886,82.3368998 165.703886,81.3909002 165.197273,80.6910958 L163.160792,77.8780249 Z M163.160792,92.5382958 C163.036378,92.366439 162.885412,92.215473 162.713555,92.0910598 C161.818832,91.4433379 160.568433,91.6435723 159.920711,92.5382958 L159.287973,93.412321 C159.045731,93.7469397 158.915313,94.1494946 158.915313,94.5625939 C158.915313,95.645943 159.793541,96.5241709 160.87689,96.5241709 L162.204612,96.5241709 C162.617711,96.5241709 163.020266,96.393753 163.354885,96.1515108 C164.23242,95.5162326 164.428807,94.2898555 163.793529,93.412321 L163.160792,92.5382958 Z M168.867829,85.2081604 C168.743415,85.0363036 168.592449,84.8853375 168.420593,84.7609243 C167.525869,84.1132025 166.27547,84.3134369 165.627748,85.2081604 L163.591267,88.0212313 C163.084654,88.7210357 163.084654,89.6670353 163.591267,90.3668397 L165.627748,93.1799106 C165.752161,93.3517674 165.903127,93.5027334 166.074984,93.6271466 C166.969708,94.2748685 168.220107,94.0746341 168.867829,93.1799106 L170.90431,90.3668397 C171.410923,89.6670353 171.410923,88.7210357 170.90431,88.0212313 L168.867829,85.2081604 Z M185.98894,77.8780249 C185.864527,77.7061681 185.713561,77.5552021 185.541704,77.4307889 C184.64698,76.783067 183.396581,76.9833014 182.74886,77.8780249 L180.712378,80.6910958 C180.205765,81.3909002 180.205765,82.3368998 180.712378,83.0367042 L182.74886,85.8497751 C182.873273,86.0216319 183.024239,86.1725979 183.196096,86.2970111 C184.090819,86.944733 185.341218,86.7444986 185.98894,85.8497751 L188.025421,83.0367042 C188.532034,82.3368998 188.532034,81.3909002 188.025421,80.6910958 L185.98894,77.8780249 Z M185.98894,92.5382958 C185.864527,92.366439 185.713561,92.215473 185.541704,92.0910598 C184.64698,91.4433379 183.396581,91.6435723 182.74886,92.5382958 L182.116122,93.412321 C181.87388,93.7469397 181.743462,94.1494946 181.743462,94.5625939 C181.743462,95.645943 182.62169,96.5241709 183.705039,96.5241709 L185.032761,96.5241709 C185.44586,96.5241709 185.848415,96.393753 186.183034,96.1515108 C187.060568,95.5162326 187.256956,94.2898555 186.621678,93.412321 L185.98894,92.5382958 Z M190.075937,86.8120302 C190.075937,86.412873 189.884492,86.0379338 189.561167,85.8038672 C189.004374,85.4007851 188.226241,85.5253925 187.823159,86.0821855 L186.419416,88.0212313 C185.912802,88.7210357 185.912802,89.6670353 186.419416,90.3668397 L187.823159,92.3058854 C188.057226,92.6292108 188.432165,92.8206555 188.831322,92.8206555 C189.518704,92.8206555 190.075937,92.2634225 190.075937,91.5760407 L190.075937,86.8120302 Z M129.551306,70.315479 C129.793549,69.9808603 129.923967,69.5783054 129.923967,69.1652061 C129.923967,68.081857 129.045739,67.2036291 127.96239,67.2036291 L126.634668,67.2036291 C126.221568,67.2036291 125.819013,67.334047 125.484395,67.5762892 C124.60686,68.2115674 124.410473,69.4379445 125.045751,70.315479 L125.678488,71.1895042 C125.802902,71.361361 125.953868,71.512327 126.125724,71.6367402 C127.020448,72.2844621 128.270847,72.0842277 128.918569,71.1895042 L129.551306,70.315479 Z M134.625606,70.5478894 C134.501193,70.3760326 134.350227,70.2250666 134.17837,70.1006534 C133.283646,69.4529315 132.033247,69.6531659 131.385525,70.5478894 L129.349044,73.3609603 C128.842431,74.0607647 128.842431,75.0067644 129.349044,75.7065687 L131.385525,78.5196396 C131.509939,78.6914964 131.660905,78.8424625 131.832762,78.9668757 C132.727485,79.6145975 133.977884,79.4143631 134.625606,78.5196396 L136.662087,75.7065687 C137.1687,75.0067644 137.1687,74.0607647 136.662087,73.3609603 L134.625606,70.5478894 Z M118.137232,70.315479 C118.379474,69.9808603 118.509892,69.5783054 118.509892,69.1652061 C118.509892,68.081857 117.631664,67.2036291 116.548315,67.2036291 L115.220593,67.2036291 C114.807494,67.2036291 114.404939,67.334047 114.070321,67.5762892 C113.192786,68.2115674 112.996398,69.4379445 113.631677,70.315479 L114.264414,71.1895042 C114.388827,71.361361 114.539793,71.512327 114.71165,71.6367402 C115.606374,72.2844621 116.856773,72.0842277 117.504495,71.1895042 L118.137232,70.315479 Z M123.211532,70.5478894 C123.087119,70.3760326 122.936152,70.2250666 122.764296,70.1006534 C121.869572,69.4529315 120.619173,69.6531659 119.971451,70.5478894 L117.93497,73.3609603 C117.428357,74.0607647 117.428357,75.0067644 117.93497,75.7065687 L119.971451,78.5196396 C120.095864,78.6914964 120.24683,78.8424625 120.418687,78.9668757 C121.313411,79.6145975 122.56381,79.4143631 123.211532,78.5196396 L125.248013,75.7065687 C125.754626,75.0067644 125.754626,74.0607647 125.248013,73.3609603 L123.211532,70.5478894 Z M112.430195,86.0821855 C112.196128,85.7588601 111.821189,85.5674154 111.422032,85.5674154 C110.73465,85.5674154 110.177417,86.1246485 110.177417,86.8120302 L110.177417,91.5760407 C110.177417,91.9751979 110.368862,92.3501371 110.692187,92.5842037 C111.24898,92.9872858 112.027113,92.8626785 112.430195,92.3058854 L113.833939,90.3668397 C114.340552,89.6670353 114.340552,88.7210357 113.833939,88.0212313 L112.430195,86.0821855 Z M112.430195,71.4219146 C112.196128,71.0985892 111.821189,70.9071445 111.422032,70.9071445 C110.73465,70.9071445 110.177417,71.4643775 110.177417,72.1517593 L110.177417,76.9157698 C110.177417,77.314927 110.368862,77.6898662 110.692187,77.9239328 C111.24898,78.3270149 112.027113,78.2024076 112.430195,77.6456145 L113.833939,75.7065687 C114.340552,75.0067644 114.340552,74.0607647 113.833939,73.3609603 L112.430195,71.4219146 Z M152.379455,70.315479 C152.621697,69.9808603 152.752115,69.5783054 152.752115,69.1652061 C152.752115,68.081857 151.873887,67.2036291 150.790538,67.2036291 L149.462816,67.2036291 C149.049717,67.2036291 148.647162,67.334047 148.312543,67.5762892 C147.435009,68.2115674 147.238621,69.4379445 147.873899,70.315479 L148.506637,71.1895042 C148.63105,71.361361 148.782016,71.512327 148.953873,71.6367402 C149.848596,72.2844621 151.098995,72.0842277 151.746717,71.1895042 L152.379455,70.315479 Z M157.453754,70.5478894 C157.329341,70.3760326 157.178375,70.2250666 157.006518,70.1006534 C156.111795,69.4529315 154.861396,69.6531659 154.213674,70.5478894 L152.177193,73.3609603 C151.67058,74.0607647 151.67058,75.0067644 152.177193,75.7065687 L154.213674,78.5196396 C154.338087,78.6914964 154.489053,78.8424625 154.66091,78.9668757 C155.555634,79.6145975 156.806033,79.4143631 157.453754,78.5196396 L159.490236,75.7065687 C159.996849,75.0067644 159.996849,74.0607647 159.490236,73.3609603 L157.453754,70.5478894 Z M140.965381,70.315479 C141.207623,69.9808603 141.338041,69.5783054 141.338041,69.1652061 C141.338041,68.081857 140.459813,67.2036291 139.376464,67.2036291 L138.048742,67.2036291 C137.635643,67.2036291 137.233088,67.334047 136.898469,67.5762892 C136.020934,68.2115674 135.824547,69.4379445 136.459825,70.315479 L137.092563,71.1895042 C137.216976,71.361361 137.367942,71.512327 137.539799,71.6367402 C138.434522,72.2844621 139.684921,72.0842277 140.332643,71.1895042 L140.965381,70.315479 Z M146.03968,70.5478894 C145.915267,70.3760326 145.764301,70.2250666 145.592444,70.1006534 C144.697721,69.4529315 143.447322,69.6531659 142.7996,70.5478894 L140.763119,73.3609603 C140.256506,74.0607647 140.256506,75.0067644 140.763119,75.7065687 L142.7996,78.5196396 C142.924013,78.6914964 143.074979,78.8424625 143.246836,78.9668757 C144.141559,79.6145975 145.391958,79.4143631 146.03968,78.5196396 L148.076161,75.7065687 C148.582774,75.0067644 148.582774,74.0607647 148.076161,73.3609603 L146.03968,70.5478894 Z M175.207603,70.315479 C175.449846,69.9808603 175.580264,69.5783054 175.580264,69.1652061 C175.580264,68.081857 174.702036,67.2036291 173.618686,67.2036291 L172.290965,67.2036291 C171.877865,67.2036291 171.47531,67.334047 171.140692,67.5762892 C170.263157,68.2115674 170.06677,69.4379445 170.702048,70.315479 L171.334785,71.1895042 C171.459199,71.361361 171.610165,71.512327 171.782021,71.6367402 C172.676745,72.2844621 173.927144,72.0842277 174.574866,71.1895042 L175.207603,70.315479 Z M180.281903,70.5478894 C180.15749,70.3760326 180.006524,70.2250666 179.834667,70.1006534 C178.939943,69.4529315 177.689544,69.6531659 177.041822,70.5478894 L175.005341,73.3609603 C174.498728,74.0607647 174.498728,75.0067644 175.005341,75.7065687 L177.041822,78.5196396 C177.166236,78.6914964 177.317202,78.8424625 177.489058,78.9668757 C178.383782,79.6145975 179.634181,79.4143631 180.281903,78.5196396 L182.318384,75.7065687 C182.824997,75.0067644 182.824997,74.0607647 182.318384,73.3609603 L180.281903,70.5478894 Z M163.793529,70.315479 C164.035771,69.9808603 164.166189,69.5783054 164.166189,69.1652061 C164.166189,68.081857 163.287961,67.2036291 162.204612,67.2036291 L160.87689,67.2036291 C160.463791,67.2036291 160.061236,67.334047 159.726617,67.5762892 C158.849083,68.2115674 158.652695,69.4379445 159.287973,70.315479 L159.920711,71.1895042 C160.045124,71.361361 160.19609,71.512327 160.367947,71.6367402 C161.262671,72.2844621 162.51307,72.0842277 163.160792,71.1895042 L163.793529,70.315479 Z M168.867829,70.5478894 C168.743415,70.3760326 168.592449,70.2250666 168.420593,70.1006534 C167.525869,69.4529315 166.27547,69.6531659 165.627748,70.5478894 L163.591267,73.3609603 C163.084654,74.0607647 163.084654,75.0067644 163.591267,75.7065687 L165.627748,78.5196396 C165.752161,78.6914964 165.903127,78.8424625 166.074984,78.9668757 C166.969708,79.6145975 168.220107,79.4143631 168.867829,78.5196396 L170.90431,75.7065687 C171.410923,75.0067644 171.410923,74.0607647 170.90431,73.3609603 L168.867829,70.5478894 Z M186.621678,70.315479 C186.86392,69.9808603 186.994338,69.5783054 186.994338,69.1652061 C186.994338,68.081857 186.11611,67.2036291 185.032761,67.2036291 L183.705039,67.2036291 C183.29194,67.2036291 182.889385,67.334047 182.554766,67.5762892 C181.677231,68.2115674 181.480844,69.4379445 182.116122,70.315479 L182.74886,71.1895042 C182.873273,71.361361 183.024239,71.512327 183.196096,71.6367402 C184.090819,72.2844621 185.341218,72.0842277 185.98894,71.1895042 L186.621678,70.315479 Z M190.075937,72.1517593 C190.075937,71.7526021 189.884492,71.3776629 189.561167,71.1435963 C189.004374,70.7405142 188.226241,70.8651215 187.823159,71.4219146 L186.419416,73.3609603 C185.912802,74.0607647 185.912802,75.0067644 186.419416,75.7065687 L187.823159,77.6456145 C188.057226,77.9689399 188.432165,78.1603846 188.831322,78.1603846 C189.518704,78.1603846 190.075937,77.6031515 190.075937,76.9157698 L190.075937,72.1517593 Z" id="Combined-Shape"></path>
            <path d="M150.131226,299.974189 C67.4023193,299.974189 0.337289819,232.909159 0.337289819,150.180253 C0.337289819,67.4513464 67.4023193,0.386316886 150.131226,0.386316886 C232.860132,0.386316886 299.925162,67.4513464 299.925162,150.180253 C299.925162,232.909159 232.860132,299.974189 150.131226,299.974189 Z M150.131226,289.523449 C227.088348,289.523449 289.474422,227.137375 289.474422,150.180253 C289.474422,73.2231306 227.088348,10.8370566 150.131226,10.8370566 C73.1741035,10.8370566 10.7880295,73.2231306 10.7880295,150.180253 C10.7880295,227.137375 73.1741035,289.523449 150.131226,289.523449 Z" id="Combined-Shape"></path>
        </g>
    </g>
</svg>