<svg width="32" height="32" viewBox="0 0 32 32" fill="none" xmlns="http://www.w3.org/2000/svg">
<g clip-path="url(#clip0_78_1528)">
<path fill-rule="evenodd" clip-rule="evenodd" d="M30.5 16C30.5 24.0081 24.0081 30.5 16 30.5C7.99187 30.5 1.5 24.0081 1.5 16C1.5 7.99187 7.99187 1.5 16 1.5C24.0081 1.5 30.5 7.99187 30.5 16ZM32 16C32 24.8366 24.8366 32 16 32C7.16344 32 0 24.8366 0 16C0 7.16344 7.16344 0 16 0C24.8366 0 32 7.16344 32 16ZM6 19.8371V20.7383H9.91905V19.6869C9.82802 19.6869 9.6687 19.6914 9.44112 19.7006C9.22263 19.7006 9.04056 19.7097 8.89491 19.7279C8.91311 19.6095 8.92677 19.4366 8.93587 19.209C8.94498 18.9814 8.94953 18.7447 8.94953 18.4989V16.4779L12.7047 16.437V18.6491C12.7047 19.0132 12.6637 19.2772 12.5818 19.4411C12.509 19.605 12.3997 19.7097 12.2541 19.7552C12.1175 19.8007 11.9446 19.828 11.7352 19.8371V20.7383H15.6542V19.6869C15.5632 19.6869 15.4039 19.6914 15.1763 19.7006C14.9578 19.7006 14.7758 19.7097 14.6301 19.7279C14.6483 19.6095 14.662 19.4366 14.6711 19.209C14.6802 18.9814 14.6847 18.7447 14.6847 18.4989V13.2689C14.6847 12.8957 14.7211 12.6317 14.794 12.4769C14.8759 12.3131 14.9897 12.2084 15.1353 12.1629C15.281 12.1173 15.454 12.09 15.6542 12.0809V11.1797H11.7352V12.2311C11.8353 12.222 11.9946 12.2175 12.2131 12.2175C12.4316 12.2084 12.6137 12.1993 12.7593 12.1902C12.7411 12.3085 12.7275 12.4815 12.7184 12.7091C12.7093 12.9367 12.7047 13.1734 12.7047 13.4191V15.3992H8.94953V13.2689C8.94953 12.8957 8.98594 12.6317 9.05877 12.4769C9.1407 12.3131 9.2545 12.2084 9.40015 12.1629C9.54581 12.1173 9.71877 12.09 9.91905 12.0809V11.1797H6V12.2311C6.10014 12.222 6.25945 12.2175 6.47793 12.2175C6.69642 12.2084 6.87849 12.1993 7.02414 12.1902C7.01504 12.3085 7.00138 12.4815 6.98318 12.7091C6.97407 12.9367 6.96952 13.1734 6.96952 13.4191V18.6491C6.96952 19.0132 6.92856 19.2772 6.84662 19.4411C6.7738 19.605 6.66455 19.7097 6.5189 19.7552C6.38235 19.8007 6.20938 19.828 6 19.8371ZM17.5611 13.4874L20.7018 20.8203H21.8215C21.9763 20.4106 22.1265 20.0055 22.2721 19.605C22.4269 19.2044 22.5771 18.8039 22.7227 18.4033C22.8775 17.9936 23.0323 17.5885 23.187 17.188C23.3418 16.7783 23.492 16.3732 23.6376 15.9727C23.7924 15.563 23.9426 15.1579 24.0883 14.7574C24.243 14.3477 24.3978 13.9426 24.5525 13.542C24.7528 13.014 24.9668 12.6408 25.1943 12.4223C25.4219 12.2038 25.6905 12.09 26 12.0809V11.1797H22.9276V12.2311C23.0277 12.222 23.1916 12.2175 23.4192 12.2175C23.6467 12.2084 23.8334 12.1993 23.979 12.1902C23.8607 12.3358 23.7469 12.5407 23.6376 12.8047C23.5375 13.0687 23.4647 13.278 23.4192 13.4328C23.3099 13.7514 23.1961 14.07 23.0778 14.3887C22.9594 14.6982 22.8411 15.0123 22.7227 15.3309C22.6135 15.6495 22.4997 15.9681 22.3814 16.2867C22.2721 16.5963 22.1583 16.9194 22.04 17.2563C21.9307 17.5931 21.826 17.8981 21.7259 18.1712H21.7123C21.5666 17.8252 21.4392 17.5112 21.3299 17.229C21.2207 16.9376 21.0887 16.6008 20.9339 16.2185C20.7245 15.7087 20.5152 15.1943 20.3058 14.6754C20.0964 14.1565 19.887 13.6422 19.6776 13.1324C19.5138 12.7318 19.5183 12.4542 19.6913 12.2994C19.8734 12.1447 20.1328 12.0718 20.4696 12.0809V11.1797H16.4413V12.2311C16.5415 12.222 16.6507 12.2175 16.7691 12.2175C16.8965 12.2084 17.0331 12.1993 17.1787 12.1902C17.1787 12.3358 17.2197 12.5316 17.3016 12.7773C17.3836 13.0231 17.47 13.2598 17.5611 13.4874Z" fill="white"/>
</g>
<defs>
<clipPath id="clip0_78_1528">
<rect width="32" height="32" fill="white"/>
</clipPath>
</defs>
</svg>
