<svg width="32" height="32" viewBox="0 0 32 32" fill="none" xmlns="http://www.w3.org/2000/svg">
<g clip-path="url(#clip0_78_1526)">
<circle cx="16" cy="16" r="15.25" stroke="white" stroke-width="1.5"/>
<path fill-rule="evenodd" clip-rule="evenodd" d="M29 16C29 21.5332 25.5431 26.2591 20.6711 28.1356C20.6771 28.0912 20.6802 28.046 20.6802 28V21.1526L16 16.4724L11.3198 21.1527V28C11.3198 28.046 11.3229 28.0912 11.3289 28.1356C6.45694 26.2591 3 21.5332 3 16C3 8.8203 8.8203 3 16 3C23.1797 3 29 8.8203 29 16ZM11.3198 19.3433L15.0953 15.5677L11.3198 11.7922V19.3433ZM11.3198 9.98279L16 14.6631L20.6802 9.98285V9.05676C20.6802 8.50448 20.2325 8.05676 19.6802 8.05676H12.3198C11.7675 8.05676 11.3198 8.50448 11.3198 9.05676V9.98279ZM20.6802 11.7922L16.9047 15.5677L20.6802 19.3433V11.7922Z" fill="white"/>
</g>
<defs>
<clipPath id="clip0_78_1526">
<rect width="32" height="32" fill="white"/>
</clipPath>
</defs>
</svg>
