<?xml version="1.0" encoding="UTF-8"?>
<svg width="1108px" height="394px" viewBox="0 0 1108 394" version="1.1" xmlns="http://www.w3.org/2000/svg" xmlns:xlink="http://www.w3.org/1999/xlink">
    <!-- Generator: Sketch 48.1 (47250) - http://www.bohemiancoding.com/sketch -->
    <title>client-pepsico</title>
    <desc>Created with Sketch.</desc>
    <defs></defs>
    <g id="Page-1" stroke="none" stroke-width="1" fill="none" fill-rule="evenodd">
        <g id="client-pepsico" fill="#BBBDBF" fill-rule="nonzero">
            <g transform="translate(28.805526, 35.824798)">
                <path d="M231.253666,237.403944 L268.801878,237.403944 L268.801878,204.648261 L309.025178,204.648261 C335.654828,204.648261 345.239886,188.993744 345.239886,168.789153 C345.239886,145.311418 335.388128,132.024879 308.750395,132.024879 L231.253666,132.024879 L231.253666,237.403944 Z M268.801878,156.819953 L293.047387,156.819953 C302.486972,156.819953 306.099553,160.076933 306.099553,168.045624 C306.099553,175.715287 302.486972,178.972267 293.047387,178.972267 L268.801878,178.972267 L268.801878,156.819953 Z" id="Shape"></path>
                <polygon id="Shape" points="357.62126 132.041043 458.692706 132.041043 458.692706 157.708955 395.169472 157.708955 395.169472 171.884496 454.166877 171.884496 454.166877 197.56049 395.169472 197.56049 395.169472 211.736031 458.692706 211.736031 458.692706 237.403944 357.62126 237.403944"></polygon>
                <path d="M474.403795,237.403944 L511.952007,237.403944 L511.952007,204.648261 L552.167225,204.648261 C578.804958,204.648261 588.390016,188.993744 588.390016,168.789153 C588.390016,145.311418 578.538257,132.024879 551.908606,132.024879 L474.403795,132.024879 L474.403795,237.403944 Z M511.952007,156.819953 L536.197516,156.819953 C545.629019,156.819953 549.233518,160.076933 549.233518,168.045624 C549.233518,175.715287 545.629019,178.972267 536.197516,178.972267 L511.952007,178.972267 L511.952007,156.819953 Z" id="Shape"></path>
                <path d="M624.734034,192.687143 C606.36402,189.5918 598.767094,177.784237 598.767094,163.026803 C598.767094,135.718278 622.875212,128.347644 653.76399,128.347644 C696.112813,128.347644 713.553416,140.599707 714.886919,162.88133 L671.212675,162.88133 C671.212675,158.589875 668.941679,155.939033 665.482653,154.460057 C662.152936,152.84369 657.893809,152.245634 653.76399,152.245634 C642.58681,152.245634 638.707529,155.340977 638.707529,159.777905 C638.707529,162.727775 639.919804,164.651253 643.645531,165.241227 L688.515887,172.628025 C707.427384,175.715287 719.146046,185.453899 719.146046,203.306676 C719.146046,228.990752 700.234549,241.097343 658.023118,241.097343 C629.122471,241.097343 597.570982,236.660415 597.433591,205.674654 L642.71612,205.674654 C642.845429,209.230662 644.041541,211.582476 646.708547,213.206926 C649.496781,214.67782 653.634681,215.421349 659.494012,215.421349 C671.212675,215.421349 674.405,211.881504 674.405,206.862684 C674.405,203.751177 672.675487,200.655834 667.616258,199.774913 L624.734034,192.687143 Z" id="Shape"></path>
                <rect id="Rectangle-path" x="731.406192" y="132.041043" width="37.5482118" height="105.362901"></rect>
                <path d="M908.107463,196.380542 C905.699076,210.257055 901.439948,221.474644 892.12159,229.136225 C882.932543,236.822051 868.546874,241.097343 845.642949,241.097343 C822.876416,241.097343 780.656903,239.327421 780.656903,184.734616 C780.656903,130.117566 822.876416,128.347644 845.642949,128.347644 C868.288255,128.347644 903.169461,131.580378 908.107463,173.347308 L865.75864,173.347308 C864.691838,165.839282 860.166009,154.91264 845.642949,154.91264 C830.32787,154.91264 820.621584,163.309668 820.621584,184.734616 C820.621584,206.119155 830.077333,214.532347 843.784127,214.532347 C855.632099,214.532347 862.695624,209.069025 865.75864,196.380542 L908.107463,196.380542 Z" id="Shape"></path>
                <path d="M917.288429,184.734616 C917.288429,239.335503 959.507942,241.105425 982.274475,241.105425 C1005.04101,241.105425 1047.25244,239.335503 1047.25244,184.734616 C1047.25244,130.117566 1005.04101,128.347644 982.274475,128.347644 C959.507942,128.347644 917.288429,130.117566 917.288429,184.734616 M957.236946,184.734616 C957.236946,163.31775 966.959395,154.920722 982.274475,154.920722 C997.589555,154.920722 1007.30392,163.31775 1007.30392,184.734616 C1007.30392,206.119155 997.589555,214.540429 982.274475,214.540429 C966.959395,214.540429 957.236946,206.119155 957.236946,184.734616" id="Shape"></path>
                <path d="M170.947003,139.524823 C167.051558,144.276943 162.121638,149.077554 156.359288,153.619546 C145.772083,92.8522182 100.950218,39.6979803 69.2855833,24.1889363 L68.606709,24.6576828 C100.457226,50.7216051 138.449939,101.321983 153.231618,156.019851 C146.168093,161.200308 137.989274,165.976674 128.969945,169.864037 C98.8974318,135.685951 70.8696232,69.7704935 61.842212,27.955072 L60.9208826,28.2379363 C61.1310104,68.8249186 90.0397391,137.738737 125.300791,171.37534 C117.477574,174.438356 109.072464,176.854825 100.222853,178.277229 C66.4165314,164.942199 42.3730681,122.181202 42.3730681,78.4099765 C42.3730681,49.8002758 51.1095333,32.1252996 52.8067189,28.4965551 L52.0793536,28.2136908 C50.034649,31.2847886 37.2249384,48.9678466 37.2249384,79.8242979 C37.2249384,129.341709 61.7129026,167.180867 94.2261303,179.085412 C83.1136053,180.297688 71.4030244,179.934005 59.3934155,177.452881 L59.1590423,178.212574 C62.6261501,179.489504 74.433713,184.435588 92.4238808,184.435588 C133.132091,184.435588 160.658825,159.212177 171.747105,140.042061 L170.947003,139.524823 Z M174.503011,133.0836 C176.935644,82.5236313 133.196745,25.587094 73.5770384,18.5639782 L73.6821023,17.8527766 C132.461298,17.8527766 177.517536,72.1061442 177.517536,114.899468 C177.469045,123.805651 176.757843,129.325546 175.488995,133.334137 L174.503011,133.0836 Z" id="Shape"></path>
                <path d="M100.675436,14.272523 C100.675436,29.8219762 70.7483957,48.8062099 45.7189484,48.8062099 C34.6710781,48.8062099 28.698601,44.4824274 28.698601,37.3219204 C28.698601,21.5461758 58.9731601,2.87713375 82.4347311,2.87713375 C97.749811,2.87713375 100.675436,10.6437785 100.675436,14.272523 M88.366799,0 C57.494184,0 21.3037207,22.2088864 21.3037207,42.5104594 C21.3037207,50.3579225 28.5127187,57.001192 43.415625,57.001192 C78.0301302,57.001192 110.203921,33.2810022 110.203921,14.8382516 C110.203921,5.14812977 100.845154,0 88.366799,0" id="Shape"></path>
                <path d="M9.01124756,51.9015532 C8.14649107,53.4047748 4.67130143,60.1692718 4.67130143,67.1196511 C4.67130143,80.018262 17.731549,91.9793798 41.7588486,91.9793798 C87.9788708,91.9793798 141.367482,58.0599125 141.367482,26.5811598 C141.367482,12.4541099 127.959715,4.78444714 118.625194,3.1761617 L118.455476,3.72572657 C121.348773,4.63897408 131.968306,9.56889427 131.968306,22.1603954 C131.968306,47.2464155 84.8269546,81.4164197 37.8553216,81.4164197 C19.8893993,81.4164197 8.55866472,72.5668088 8.55866472,59.668198 C8.55866472,55.6111161 9.41533938,52.9279464 9.63354896,52.1359265 L9.01124756,51.9015532 Z" id="Shape"></path>
                <path d="M160.424452,28.9491379 C161.6933,29.8947128 169.30639,36.2227906 169.30639,48.1919903 C169.30639,88.9648549 105.209346,129.075009 48.5395093,129.075009 C14.7493514,129.075009 -0.662710583,112.434508 0.0242455091,97.6609108 L0.638465074,97.6609108 C1.96388624,105.330574 12.9228564,119.04545 42.4942957,119.04545 C99.2368689,119.04545 162.590384,77.5694656 162.590384,41.2173655 C162.590384,34.9620242 160.893199,31.0827427 159.923378,29.3613116 L160.424452,28.9491379 Z" id="Shape"></path>
                <path d="M181.8494,67.0065054 C182.124183,67.8712619 183.498095,71.7909526 183.498095,77.9008209 C183.498095,123.264168 118.633276,162.097392 62.2139764,162.097392 C33.1840202,162.097392 18.0224951,148.026915 14.8301698,142.32922 L15.3312436,141.93321 C23.3726708,148.948244 39.1888246,154.266093 57.6639026,154.266093 C107.480342,154.266093 181.825155,116.475426 181.162444,67.1681421 L181.8494,67.0065054 Z" id="Shape"></path>
            </g>
        </g>
    </g>
</svg>