<?xml version="1.0" encoding="UTF-8"?>
<svg width="1108px" height="394px" viewBox="0 0 1108 394" version="1.1" xmlns="http://www.w3.org/2000/svg" xmlns:xlink="http://www.w3.org/1999/xlink">
    <!-- Generator: Sketch 48.1 (47250) - http://www.bohemiancoding.com/sketch -->
    <title>client-doinbound</title>
    <desc>Created with Sketch.</desc>
    <defs></defs>
    <g id="Page-1" stroke="none" stroke-width="1" fill="none" fill-rule="evenodd">
        <g id="client-doinbound" fill="#BBBDBF">
            <g id="Group" transform="translate(70.986575, 88.144200)">
                <g id="Group-2" transform="translate(0.713890, 0.713890)" fill-rule="nonzero">
                    <path d="M44.1604259,20.1992143 C30.953657,20.1992143 20.2474555,30.9054158 20.2474555,44.1121847 L20.2474555,172.01877 C20.2474555,185.225539 30.953657,195.931741 44.1604259,195.931741 L172.067012,195.931741 C185.273781,195.931741 195.979982,185.225539 195.979982,172.01877 L195.979982,44.1121847 C195.979982,30.9054158 185.273781,20.1992143 172.067012,20.1992143 L44.1604259,20.1992143 Z M44.1604259,0.179053024 L172.067012,0.179053024 C196.33061,0.179053024 216.000143,19.8485861 216.000143,44.1121847 L216.000143,172.01877 C216.000143,196.282369 196.33061,215.951902 172.067012,215.951902 L44.1604259,215.951902 C19.8968273,215.951902 0.227294228,196.282369 0.227294228,172.01877 L0.227294228,44.1121847 C0.227294228,19.8485861 19.8968273,0.179053024 44.1604259,0.179053024 Z" id="Rectangle"></path>
                    <path d="M162.541323,46.8414836 L172.006287,53.327626 C176.106485,56.1374066 177.152576,61.7390514 174.342795,65.8392498 L104.354748,167.969955 C99.1621224,175.547342 88.3780545,176.579446 81.8424476,170.124526 L43.20045,131.95959 C39.6639691,128.466769 39.6285754,122.768394 43.1213961,119.231913 L51.1842791,111.068244 C54.6770998,107.531763 60.3754747,107.49637 63.9119557,110.98919 L82.3475381,129.197173 C85.8840191,132.689994 91.582394,132.6546 95.0752147,129.118119 C95.4515696,128.73706 95.7931587,128.323166 96.0959154,127.881366 L150.0297,49.1779917 C152.83948,45.0777933 158.441125,44.031703 162.541323,46.8414836 Z" id="Path-2"></path>
                </g>
                <path d="M349.116212,110.887019 C349.116212,119.143437 347.584803,126.267819 344.521939,132.26038 C341.459074,138.252942 337.419704,143.180085 332.403709,147.041957 C327.387713,150.90383 321.728157,153.744705 315.424871,155.564668 C309.121584,157.384631 302.729615,158.294599 296.248771,158.294599 L261.092588,158.294599 L261.092588,64.012109 L295.183432,64.012109 C301.841833,64.012109 308.411357,64.7889108 314.892201,66.3425378 C321.373045,67.8961647 327.143573,70.4707079 332.203958,74.0662446 C337.264343,77.6617813 341.348101,82.4779526 344.455355,88.5149031 C347.562609,94.5518535 349.116212,102.009151 349.116212,110.887019 Z M325.412423,110.887019 C325.412423,105.560298 324.546843,101.143625 322.815659,97.6368672 C321.084475,94.1301092 318.776264,91.3336226 315.890956,89.2473235 C313.005649,87.1610245 309.720887,85.6740038 306.036572,84.786217 C302.352256,83.8984302 298.557025,83.4545434 294.650763,83.4545434 L283.331537,83.4545434 L283.331537,138.58583 L294.118093,138.58583 C298.201913,138.58583 302.13031,138.119749 305.903404,137.187573 C309.676498,136.255397 313.005649,134.723987 315.890956,132.593299 C318.776264,130.46261 321.084475,127.621735 322.815659,124.070588 C324.546843,120.519441 325.412423,116.124962 325.412423,110.887019 Z M431.813142,124.869592 C431.813142,130.285092 430.836591,135.19004 428.88346,139.584585 C426.930329,143.97913 424.267009,147.707779 420.893419,150.770643 C417.519829,153.833508 413.613625,156.208302 409.174691,157.895097 C404.735757,159.581892 399.986169,160.425277 394.925784,160.425277 C389.954178,160.425277 385.226784,159.581892 380.74346,157.895097 C376.260137,156.208302 372.353933,153.833508 369.024733,150.770643 C365.695532,147.707779 363.054406,143.97913 361.101275,139.584585 C359.148144,135.19004 358.171593,130.285092 358.171593,124.869592 C358.171593,119.454092 359.148144,114.571338 361.101275,110.221183 C363.054406,105.871027 365.695532,102.186767 369.024733,99.1682918 C372.353933,96.1498165 376.260137,93.8416054 380.74346,92.2435891 C385.226784,90.6455728 389.954178,89.8465766 394.925784,89.8465766 C399.986169,89.8465766 404.735757,90.6455728 409.174691,92.2435891 C413.613625,93.8416054 417.519829,96.1498165 420.893419,99.1682918 C424.267009,102.186767 426.930329,105.871027 428.88346,110.221183 C430.836591,114.571338 431.813142,119.454092 431.813142,124.869592 Z M410.7727,124.869592 C410.7727,122.738904 410.41759,120.652636 409.707361,118.610726 C408.997131,116.568816 407.976192,114.771075 406.644511,113.217448 C405.312831,111.663821 403.67045,110.398744 401.717319,109.422178 C399.764188,108.445613 397.500366,107.957337 394.925784,107.957337 C392.351202,107.957337 390.08738,108.445613 388.134249,109.422178 C386.181118,110.398744 384.560931,111.663821 383.27364,113.217448 C381.986349,114.771075 381.009798,116.568816 380.343958,118.610726 C379.678118,120.652636 379.345203,122.738904 379.345203,124.869592 C379.345203,127.00028 379.678118,129.086548 380.343958,131.128458 C381.009798,133.170368 382.008543,135.012498 383.340224,136.654903 C384.671904,138.297309 386.314285,139.606775 388.267416,140.58334 C390.220547,141.559906 392.484369,142.048181 395.058951,142.048181 C397.633533,142.048181 399.897356,141.559906 401.850487,140.58334 C403.803618,139.606775 405.445999,138.297309 406.777679,136.654903 C408.109359,135.012498 409.108104,133.170368 409.773944,131.128458 C410.439785,129.086548 410.7727,127.00028 410.7727,124.869592 Z M445.396213,158.294599 L445.396213,64.012109 L468.300999,64.012109 L468.300999,158.294599 L445.396213,158.294599 Z M528.625812,158.294599 L528.625812,122.073078 C528.625812,120.208725 528.470452,118.433178 528.159727,116.746383 C527.849001,115.059588 527.338531,113.572568 526.628302,112.285277 C525.918072,110.997986 524.919327,109.977046 523.632036,109.222427 C522.344745,108.467809 520.724559,108.090505 518.771428,108.090505 C516.818297,108.090505 515.109333,108.467809 513.644484,109.222427 C512.179636,109.977046 510.958948,111.02018 509.982382,112.35186 C509.005817,113.683541 508.273403,115.21495 507.785121,116.946134 C507.296838,118.677319 507.0527,120.47506 507.0527,122.339412 L507.0527,158.294599 L485.080086,158.294599 L485.080086,91.9772544 L506.253696,91.9772544 L506.253696,101.165802 L506.520031,101.165802 C507.319039,99.7453432 508.362173,98.3470999 509.649464,96.9710304 C510.936755,95.5949608 512.44597,94.4186609 514.177154,93.4420953 C515.908338,92.4655298 517.794857,91.6665337 519.836767,91.0450829 C521.878676,90.4236321 524.053721,90.1129114 526.361967,90.1129114 C530.800901,90.1129114 534.573939,90.9119075 537.681193,92.5099238 C540.788447,94.1079401 543.296407,96.1720136 545.205148,98.702206 C547.11389,101.232398 548.489939,104.139857 549.333337,107.424668 C550.176734,110.709479 550.598427,113.994241 550.598427,117.279053 L550.598427,158.294599 L528.625812,158.294599 Z M639.554222,124.869592 C639.554222,129.486084 638.844004,133.924951 637.423545,138.186328 C636.003086,142.447705 633.939012,146.198548 631.231262,149.43897 C628.523513,152.679392 625.216556,155.276129 621.310294,157.22926 C617.404032,159.182391 612.965165,160.158942 607.993558,160.158942 C603.554624,160.158942 599.359894,159.248974 595.409243,157.429011 C591.458591,155.609048 588.417967,153.012311 586.287279,149.638721 L586.020944,149.638721 L586.020944,158.294599 L565.912673,158.294599 L565.912673,57.6200758 L587.75212,57.6200758 L587.75212,99.0351244 L588.018454,99.0351244 C589.882807,96.8156573 592.501739,94.7737783 595.875329,92.9094259 C599.248919,91.0450736 603.377065,90.1129114 608.259893,90.1129114 C613.053942,90.1129114 617.381838,91.0450736 621.24371,92.9094259 C625.105583,94.7737783 628.390345,97.3039328 631.098095,100.499965 C633.805845,103.695998 635.892113,107.402452 637.356961,111.61944 C638.821809,115.836427 639.554222,120.253101 639.554222,124.869592 Z M618.51378,124.869592 C618.51378,122.738904 618.180865,120.652636 617.515024,118.610726 C616.849184,116.568816 615.850439,114.771075 614.518759,113.217448 C613.187079,111.663821 611.544698,110.398744 609.591567,109.422178 C607.638436,108.445613 605.374613,107.957337 602.800031,107.957337 C600.314228,107.957337 598.094794,108.445613 596.141663,109.422178 C594.188532,110.398744 592.523957,111.686016 591.147887,113.284032 C589.771818,114.882048 588.70649,116.701984 587.951871,118.743894 C587.197252,120.785803 586.819948,122.872071 586.819948,125.002759 C586.819948,127.133448 587.197252,129.219716 587.951871,131.261625 C588.70649,133.303535 589.771818,135.123471 591.147887,136.721487 C592.523957,138.319503 594.188532,139.606775 596.141663,140.58334 C598.094794,141.559906 600.314228,142.048181 602.800031,142.048181 C605.374613,142.048181 607.638436,141.559906 609.591567,140.58334 C611.544698,139.606775 613.187079,138.319503 614.518759,136.721487 C615.850439,135.123471 616.849184,133.281341 617.515024,131.195042 C618.180865,129.108743 618.51378,127.00028 618.51378,124.869592 Z M722.251152,124.869592 C722.251152,130.285092 721.274601,135.19004 719.32147,139.584585 C717.368339,143.97913 714.705019,147.707779 711.331429,150.770643 C707.957839,153.833508 704.051635,156.208302 699.612701,157.895097 C695.173767,159.581892 690.424179,160.425277 685.363794,160.425277 C680.392188,160.425277 675.664794,159.581892 671.18147,157.895097 C666.698147,156.208302 662.791943,153.833508 659.462742,150.770643 C656.133542,147.707779 653.492416,143.97913 651.539285,139.584585 C649.586154,135.19004 648.609603,130.285092 648.609603,124.869592 C648.609603,119.454092 649.586154,114.571338 651.539285,110.221183 C653.492416,105.871027 656.133542,102.186767 659.462742,99.1682918 C662.791943,96.1498165 666.698147,93.8416054 671.18147,92.2435891 C675.664794,90.6455728 680.392188,89.8465766 685.363794,89.8465766 C690.424179,89.8465766 695.173767,90.6455728 699.612701,92.2435891 C704.051635,93.8416054 707.957839,96.1498165 711.331429,99.1682918 C714.705019,102.186767 717.368339,105.871027 719.32147,110.221183 C721.274601,114.571338 722.251152,119.454092 722.251152,124.869592 Z M701.21071,124.869592 C701.21071,122.738904 700.8556,120.652636 700.145371,118.610726 C699.435141,116.568816 698.414202,114.771075 697.082521,113.217448 C695.750841,111.663821 694.10846,110.398744 692.155329,109.422178 C690.202198,108.445613 687.938376,107.957337 685.363794,107.957337 C682.789212,107.957337 680.52539,108.445613 678.572259,109.422178 C676.619127,110.398744 674.998941,111.663821 673.71165,113.217448 C672.424359,114.771075 671.447808,116.568816 670.781968,118.610726 C670.116128,120.652636 669.783213,122.738904 669.783213,124.869592 C669.783213,127.00028 670.116128,129.086548 670.781968,131.128458 C671.447808,133.170368 672.446553,135.012498 673.778234,136.654903 C675.109914,138.297309 676.752295,139.606775 678.705426,140.58334 C680.658557,141.559906 682.922379,142.048181 685.496961,142.048181 C688.071543,142.048181 690.335365,141.559906 692.288496,140.58334 C694.241628,139.606775 695.884009,138.297309 697.215689,136.654903 C698.547369,135.012498 699.546114,133.170368 700.211954,131.128458 C700.877794,129.086548 701.21071,127.00028 701.21071,124.869592 Z M778.31461,158.294599 L778.31461,149.106051 L778.048276,149.106051 C777.249268,150.615289 776.206134,152.035727 774.918843,153.367407 C773.631552,154.699087 772.122337,155.853193 770.391153,156.829758 C768.659968,157.806324 766.751255,158.60532 764.664956,159.226771 C762.578657,159.848221 760.381418,160.158942 758.073172,160.158942 C753.634238,160.158942 749.883395,159.359946 746.82053,157.76193 C743.757665,156.163913 741.2719,154.09984 739.363158,151.569648 C737.454416,149.039455 736.078367,146.154191 735.23497,142.913769 C734.391572,139.673347 733.96988,136.366391 733.96988,132.992801 L733.96988,91.9772544 L755.942494,91.9772544 L755.942494,127.932441 C755.942494,129.796794 756.07566,131.572341 756.341996,133.259136 C756.608332,134.945931 757.118802,136.455146 757.873421,137.786826 C758.62804,139.118506 759.626785,140.16164 760.869686,140.916259 C762.112588,141.670878 763.754969,142.048181 765.796879,142.048181 C769.614362,142.048181 772.52182,140.627744 774.519341,137.786826 C776.516861,134.945908 777.515606,131.616757 777.515606,127.799274 L777.515606,91.9772544 L799.355053,91.9772544 L799.355053,158.294599 L778.31461,158.294599 Z M858.48136,158.294599 L858.48136,122.073078 C858.48136,120.208725 858.326,118.433178 858.015275,116.746383 C857.704549,115.059588 857.19408,113.572568 856.48385,112.285277 C855.773621,110.997986 854.774875,109.977046 853.487585,109.222427 C852.200294,108.467809 850.580107,108.090505 848.626976,108.090505 C846.673845,108.090505 844.964881,108.467809 843.500033,109.222427 C842.035184,109.977046 840.814496,111.02018 839.83793,112.35186 C838.861365,113.683541 838.128952,115.21495 837.640669,116.946134 C837.152386,118.677319 836.908248,120.47506 836.908248,122.339412 L836.908248,158.294599 L814.935634,158.294599 L814.935634,91.9772544 L836.109244,91.9772544 L836.109244,101.165802 L836.375579,101.165802 C837.174587,99.7453432 838.217721,98.3470999 839.505012,96.9710304 C840.792303,95.5949608 842.301518,94.4186609 844.032702,93.4420953 C845.763886,92.4655298 847.650405,91.6665337 849.692315,91.0450829 C851.734225,90.4236321 853.90927,90.1129114 856.217515,90.1129114 C860.65645,90.1129114 864.429487,90.9119075 867.536741,92.5099238 C870.643995,94.1079401 873.151955,96.1720136 875.060697,98.702206 C876.969438,101.232398 878.345487,104.139857 879.188885,107.424668 C880.032282,110.709479 880.453975,113.994241 880.453975,117.279053 L880.453975,158.294599 L858.48136,158.294599 Z M945.705981,158.294599 L945.705981,149.638721 L945.439646,149.638721 C943.308958,153.012311 940.268333,155.609048 936.317682,157.429011 C932.36703,159.248974 928.172301,160.158942 923.733366,160.158942 C918.76176,160.158942 914.322893,159.182391 910.41663,157.22926 C906.510368,155.276129 903.203412,152.679392 900.495662,149.43897 C897.787912,146.198548 895.723839,142.447705 894.30338,138.186328 C892.882921,133.924951 892.172702,129.486084 892.172702,124.869592 C892.172702,120.253101 892.905115,115.836427 894.369964,111.61944 C895.834812,107.402452 897.92108,103.695998 900.62883,100.499965 C903.336579,97.3039328 906.621341,94.7737783 910.483214,92.9094259 C914.345087,91.0450736 918.672983,90.1129114 923.467032,90.1129114 C928.349859,90.1129114 932.478006,91.0450736 935.851596,92.9094259 C939.225186,94.7737783 941.844118,96.8156573 943.70847,99.0351244 L943.974805,99.0351244 L943.974805,57.6200758 L965.814252,57.6200758 L965.814252,158.294599 L945.705981,158.294599 Z M944.906976,125.002759 C944.906976,122.872071 944.529673,120.785803 943.775054,118.743894 C943.020435,116.701984 941.955107,114.882048 940.579037,113.284032 C939.202968,111.686016 937.538392,110.398744 935.585261,109.422178 C933.63213,108.445613 931.412697,107.957337 928.926893,107.957337 C926.352312,107.957337 924.088489,108.445613 922.135358,109.422178 C920.182227,110.398744 918.539846,111.663821 917.208166,113.217448 C915.876486,114.771075 914.87774,116.568816 914.2119,118.610726 C913.54606,120.652636 913.213145,122.738904 913.213145,124.869592 C913.213145,127.00028 913.54606,129.108743 914.2119,131.195042 C914.87774,133.281341 915.876486,135.123471 917.208166,136.721487 C918.539846,138.319503 920.182227,139.606775 922.135358,140.58334 C924.088489,141.559906 926.352312,142.048181 928.926893,142.048181 C931.412697,142.048181 933.63213,141.559906 935.585261,140.58334 C937.538392,139.606775 939.202968,138.319503 940.579037,136.721487 C941.955107,135.123471 943.020435,133.303535 943.775054,131.261625 C944.529673,129.219716 944.906976,127.133448 944.906976,125.002759 Z" id="DoInbound"></path>
            </g>
        </g>
    </g>
</svg>