<?xml version="1.0" encoding="UTF-8"?>
<svg width="1108px" height="394px" viewBox="0 0 1108 394" version="1.1" xmlns="http://www.w3.org/2000/svg" xmlns:xlink="http://www.w3.org/1999/xlink">
    <!-- Generator: Sketch 48.1 (47250) - http://www.bohemiancoding.com/sketch -->
    <title>client-sp</title>
    <desc>Created with Sketch.</desc>
    <defs></defs>
    <g id="Page-1" stroke="none" stroke-width="1" fill="none" fill-rule="evenodd">
        <g id="client-sp" fill="#BBBDBF" fill-rule="nonzero">
            <g transform="translate(56.826330, 76.544990)">
                <path d="M993.826125,208.697598 C984.414014,210.65277 974.157477,210.984046 965.615775,205.878511 C957.216977,200.870411 954.625236,191.822053 954.625236,182.598315 L954.625236,67.0482542 L979.704711,67.0482542 L979.704711,178.48011 C979.704711,181.636967 980.302305,185.592782 983.394207,187.21668 C986.577046,188.892542 990.41594,188.093584 993.826125,188.093584 L993.826125,208.697598 Z M905.94728,163.57273 L879.692103,165.534398 C872.696352,166.021568 865.518725,170.055329 864.830192,177.473294 C864.128668,185.086126 870.000682,190.672334 877.431638,191.516761 C884.388415,192.322214 892.287053,190.419006 897.873261,186.203368 C903.602372,181.877304 905.94728,175.232315 905.94728,168.288529 L905.94728,163.57273 Z M939.172226,207.723259 C927.869898,212.594952 910.903416,211.211391 909.324987,196.135126 C900.140222,212.250686 875.353049,214.900887 859.633719,208.015561 C850.851681,204.144189 844.141736,197.051004 841.608456,187.801283 C839.036202,178.454128 840.809498,168.009218 847.019283,160.409377 C853.9176,151.978101 864.869165,148.347066 875.508943,147.496143 L905.94728,145.326616 L905.94728,139.04538 C905.94728,134.556927 904.894995,129.139604 901.192508,126.093172 C898.048642,123.520919 893.436773,123.059732 889.532923,122.975289 C879.77005,122.747943 870.143585,126.638802 869.539495,137.486438 L845.466836,137.486438 C846.103404,128.223726 849.753926,119.40921 857.191377,113.47224 C864.356014,107.736633 873.677186,105.248822 882.73204,104.540803 C900.1727,103.183225 920.250571,107.444332 927.23333,125.118834 C929.877036,131.640407 930.221302,138.76607 930.221302,145.722847 L930.221302,183.59214 C930.221302,188.067602 933.189787,191.516761 938.178401,189.873376 C938.574632,189.873376 938.905907,189.80842 939.172226,189.665517 L939.172226,207.723259 Z M803.479339,157.694221 C803.479339,149.120041 802.362097,139.961258 796.925288,132.972003 C791.644373,126.664784 784.102992,124.027575 775.944531,125.216268 C768.097857,126.359492 762.479171,131.880744 759.634103,138.973929 C756.548697,146.710177 756.236909,155.86896 757.055353,164.053404 C757.834824,171.919564 759.582138,179.974096 765.687993,185.547313 C774.755838,193.829191 789.383907,191.62069 796.925288,182.598315 C802.394575,175.583077 803.479339,166.300878 803.479339,157.694221 Z M828.747186,158.07746 C828.747186,174.745146 823.830024,191.796071 810.247744,202.617725 C795.379338,214.861913 767.35736,215.04379 756.132979,197.713554 L754.54156,208.898961 L733.060642,208.898961 L733.060642,67.2431219 L757.925762,67.2431219 L757.925762,114.336154 C763.73282,107.333907 773.904915,104.729175 782.686954,104.371918 C792.54726,103.982182 802.524487,106.229656 810.247744,112.569353 C822.582871,122.644014 828.747186,137.804722 828.747186,158.07746 Z M688.728236,157.889088 C688.728236,148.957651 687.773384,139.04538 681.368732,132.186036 C673.242748,123.559892 658.062553,123.53391 649.936569,132.186036 C643.531917,139.04538 642.564074,148.957651 642.57057,157.889088 C642.583561,166.820525 643.525421,176.726301 649.936569,183.59214 C658.056057,192.244267 673.249244,192.218284 681.368732,183.59214 C687.773384,176.726301 688.728236,166.820525 688.728236,157.889088 Z M713.996083,157.889088 C713.996083,171.679227 710.605385,184.566479 701.86232,195.557018 C684.278757,216.75213 647.026545,216.75213 629.442981,195.557018 C612.794782,174.634721 612.801278,141.143456 629.442981,120.221159 C647.026545,99.019551 684.278757,99.019551 701.86232,120.221159 C710.59889,131.218193 713.996083,144.098949 713.996083,157.889088 Z M608.436241,208.697598 C599.154042,210.613797 589.111859,210.984046 580.609131,206.112353 C571.950509,201.149721 569.248343,192.00393 569.248343,182.598315 L569.248343,67.0482542 L594.314827,67.0482542 L594.314827,178.48011 C594.314827,181.636967 594.918917,185.592782 598.010818,187.21668 C601.193658,188.892542 605.026056,188.093584 608.436241,188.093584 L608.436241,208.697598 Z M529.67071,208.898961 L526.695729,193.588854 C519.699978,206.476106 502.837425,211.783003 488.943357,211.425746 C474.042472,211.029515 459.693713,206.924301 449.300768,195.946753 C434.393387,180.721089 431.002689,159.83127 431.002689,139.454602 C430.989698,119.012979 434.016643,98.590842 449.300768,83.5275675 C470.87912,62.2545083 511.483056,61.2801698 533.061408,83.137832 C540.622276,90.8870716 545.292605,100.429094 545.987633,111.198783 L519.725961,111.198783 C519.238791,106.216665 516.63406,102.293329 513.55515,98.447939 C502.61008,85.8919624 478.80374,87.7561969 468.001573,99.4287732 C457.90093,109.932143 456.998043,126.249067 457.062999,139.922285 C457.121459,153.34867 458.316648,169.776019 468.202936,180.052043 C478.829723,191.555734 501.23951,192.218284 512.171589,180.83801 C519.485624,173.381072 521.31738,163.85204 521.31738,153.764388 L487.702699,153.764388 L487.702699,132.777135 L546.188997,132.777135 L546.188997,208.898961 L529.67071,208.898961 Z M353.205001,114.524526 C353.205001,108.132865 351.119916,101.546336 346.144294,97.2072812 C341.337557,93.0046341 334.530178,91.9653396 328.333385,91.9653396 L299.486467,91.9653396 L299.486467,136.888844 L328.333385,136.888844 C334.517187,136.888844 341.324566,135.888523 346.144294,131.737841 C351.139403,127.43776 353.205001,120.903196 353.205001,114.524526 Z M379.057451,114.336154 C379.057451,126.918112 374.900273,139.59101 364.994498,147.976817 C355.205643,156.278182 341.941647,159.06479 329.32721,159.06479 L299.486467,159.06479 L299.486467,208.88597 L274.023752,208.88597 L274.023752,69.8023846 L329.32721,69.8023846 C341.928656,69.8023846 355.153678,72.6084797 364.994498,80.805915 C374.958734,89.1137753 379.057451,101.773681 379.057451,114.336154 Z M192.582037,102.169912 C192.582037,96.2784117 189.899359,91.0689481 184.326142,88.5551545 C178.616518,85.9764051 171.360943,86.7298936 166.32686,90.4063979 C161.370725,94.0244418 160.091093,100.721396 161.883876,106.353073 C164.046908,113.153956 169.535682,118.090605 174.478827,122.975289 C183.065997,118.20103 192.582037,113.205921 192.582037,102.169912 Z M167.911784,147.496143 C161.273291,151.503923 154.134637,155.680587 151.932632,163.598712 C149.938485,170.711384 151.776738,178.80489 157.044661,184.111787 C167.612987,194.777547 190.256616,193.627828 200.142905,182.598315 L167.911784,147.496143 Z M225.014521,209.093829 L215.063276,198.103289 C198.512512,212.529996 173.101761,217.096396 152.796545,207.950605 C133.309774,199.168566 123.170157,176.726301 130.653077,156.602961 C134.576414,146.060618 143.917073,137.921643 153.387644,132.186036 C143.852117,122.234792 136.836879,111.400147 138.54522,97.1812988 C140.039205,84.8266856 148.593898,74.1934038 160.357413,69.7374287 C172.913389,64.9956476 188.548276,65.8855435 200.071453,72.9007813 C211.269852,79.7341426 216.713156,91.7509851 215.732322,104.527812 C214.524142,120.448504 202.318928,130.886918 189.197835,138.460777 L213.67322,164.748432 C216.440342,159.61042 216.784608,153.381148 217.25229,147.684515 C217.719973,142.000874 217.655017,136.317232 217.655017,130.620599 L254.056307,130.620599 L254.056307,150.035919 L237.745879,150.035919 C237.219736,160.883556 235.329519,172.023493 229.197681,181.227745 L255.251495,209.093829 L225.014521,209.093829 Z M113.939922,167.502562 C113.939922,178.454128 110.120515,188.730152 102.20239,196.531357 C91.1598864,207.430957 75.1807336,211.042506 60.0135296,211.425746 C44.0213856,211.808986 27.5225856,207.937614 15.4602739,197.128951 C6.23003971,188.892542 0.741265687,177.031594 0.741265687,164.748432 L26.9964428,164.748432 C26.9964428,171.133597 29.7960423,177.336886 34.3559469,181.825339 C40.6371829,188.015637 50.1207452,189.347233 58.64296,189.275782 C66.8403953,189.197835 76.5513032,187.983159 82.5077597,181.825339 C88.8864297,175.011465 91.023479,162.975136 82.6116892,156.719882 C73.8361463,150.185318 61.3061521,150.633514 50.8872249,149.652679 C40.0201018,148.639367 28.8931552,146.840089 19.7993284,140.441932 C11.1342106,134.342572 5.69740129,124.852515 4.58015971,114.433587 C3.24856365,102.052992 7.76949468,90.7246818 16.648967,81.9556345 C26.8795221,71.8874692 42.111682,67.5938838 56.2525827,67.2691043 C70.8027055,66.9508203 86.5999818,70.7052717 97.4281313,80.7929238 C105.82693,88.5551545 111.484589,98.9221171 111.750908,110.412817 L85.4892358,110.412817 C85.2099254,105.339761 82.8000613,100.377129 79.3249204,96.6746428 C73.9790493,91.1014261 64.7812931,89.1527489 57.2918772,89.2242004 C49.3087963,89.3021475 40.6696609,90.9780098 34.9535412,96.8760061 C28.1136843,104.209528 28.2760741,116.810974 37.8895481,121.702153 C42.7157719,124.163982 48.5942814,124.35885 53.9011789,124.930462 C59.7926795,125.573525 65.6906758,126.054199 71.5691852,126.807687 C82.6961319,128.210735 93.7581226,131.445539 102.117948,139.201274 C110.055559,146.534796 113.939922,156.882272 113.939922,167.502562 Z" id="Shape"></path>
                <rect id="Rectangle-path" x="0.741265687" y="0.741265687" width="993.084859" height="25.1119531"></rect>
            </g>
        </g>
    </g>
</svg>