<?xml version="1.0" standalone="no"?>
<!DOCTYPE svg PUBLIC "-//W3C//DTD SVG 1.1//EN" "http://www.w3.org/Graphics/SVG/1.1/DTD/svg11.dtd">
<svg width="100%" height="100%" viewBox="0 0 120 53" version="1.1" xmlns="http://www.w3.org/2000/svg" xmlns:xlink="http://www.w3.org/1999/xlink" xml:space="preserve" style="fill-rule:evenodd;clip-rule:evenodd;stroke-linejoin:round;stroke-miterlimit:1.41421;">
    <g transform="matrix(1,0,0,1,-655.687,-380.27)">
        <path d="M775.56,404.723C775.59,405.575 774.636,406.522 774.099,407.094C773.378,407.868 772.48,408.424 771.485,408.785C770.367,409.194 769.113,409.364 767.941,409.09C766.853,408.836 766.031,408.069 765.216,407.35C763.435,405.776 761.345,404.174 758.966,403.67C756.522,403.153 753.998,403.508 751.53,403.207C750.36,403.065 749.287,402.715 748.261,402.137C747.19,401.534 746.084,400.731 745.456,399.653C744.978,398.828 744.79,397.797 744.758,396.86C744.73,396.02 744.825,394.91 745.574,394.371C745.032,396.291 745.204,398.35 746.593,399.875C747.878,401.285 749.791,402.002 751.627,402.368C754.405,402.92 757.286,402.707 760.043,403.387C761.155,403.662 762.215,404.1 763.165,404.739C763.96,405.274 764.641,405.942 765.333,406.602C766.902,408.1 768.762,409.147 770.98,408.379C772.014,408.022 773.046,407.391 773.729,406.53C774.459,405.612 774.304,404.577 773.704,403.623C772.974,402.467 771.969,401.436 771.074,400.405C770.091,399.276 769.089,398.166 768.075,397.067C766.102,394.926 764.141,392.762 761.98,390.807C761.081,389.993 760.115,389.256 759.21,388.45C758.35,387.68 757.527,386.946 756.523,386.36C754.53,385.2 752.381,384.307 750.126,383.786C750.54,384.553 751.276,385.155 751.951,385.688C752.3,385.961 752.656,386.262 753.04,386.487C753.248,386.612 753.846,386.791 753.738,387.133C748.158,385.928 742.306,386.651 736.848,388.102C731.735,389.461 726.748,391.471 722.368,394.453C721.179,395.264 720.04,396.143 718.963,397.094C720.43,394.955 722.807,393.645 724.954,392.28C726.749,391.139 728.612,390.1 730.541,389.203C734.883,387.186 739.55,385.95 744.323,385.514C746.277,385.334 748.243,385.284 750.205,385.342C750.059,384.196 748.484,384.116 748.4,382.93C749.714,383.403 751.138,383.489 752.494,383.805C753.892,384.129 755.142,384.778 756.354,385.526C757.578,386.282 758.805,387.051 759.997,387.856C761.143,388.631 762.151,389.627 763.119,390.612C765.094,392.614 766.882,394.789 768.84,396.805C769.814,397.805 770.817,398.774 771.767,399.797C772.732,400.838 773.61,401.938 774.497,403.043C774.849,403.485 775.54,404.119 775.56,404.723" style="fill:rgb(188,190,192);fill-rule:nonzero;"/>
        <path d="M725.635,381.916C728.064,384.258 728.06,389.223 725.478,391.455C725.322,391.59 725.155,391.715 724.979,391.826C724.714,391.996 724.628,392.041 724.321,391.939C723.745,391.748 723.178,391.541 722.615,391.312C721.498,390.855 720.412,390.318 719.389,389.68C717.423,388.453 715.716,386.838 714.488,384.875C714.797,384.734 715.347,385.576 715.529,385.77C716,386.275 716.453,386.801 716.965,387.264C717.925,388.137 719.069,388.797 720.236,389.357C721.461,389.945 722.735,390.426 723.997,390.92C724.334,391.053 724.441,391.129 724.751,390.936C724.937,390.82 725.113,390.691 725.278,390.551C725.623,390.252 725.918,389.895 726.153,389.504C727.067,387.988 727.115,386.02 726.583,384.365C725.97,382.455 724.473,381.191 722.454,380.93C720.265,380.643 717.942,381.256 715.847,381.838C713.784,382.41 711.928,383.603 710.877,385.498C706.545,382.617 700.809,382.256 695.768,382.746C692.858,383.029 690.087,383.852 687.267,384.58C684.609,385.268 681.989,386.139 679.49,387.273C675.635,389.023 671.637,391.441 669.219,394.99C668.118,396.604 667.092,398.572 667.318,400.584C667.435,401.627 667.913,402.502 668.734,403.16C669.473,403.752 670.323,404.203 670.921,404.957C669.737,404.978 668.757,404.109 667.651,403.809C666.453,403.48 665.192,403.469 663.966,403.619C661.541,403.918 659.284,404.848 656.948,405.502C656.833,405.199 657.353,404.824 657.541,404.676C657.912,404.385 658.316,404.143 658.751,403.961C659.858,403.498 661.057,403.232 662.235,403.029C662.829,402.926 663.428,402.844 664.029,402.789C664.658,402.732 665.33,402.834 665.942,402.648C666.265,402.551 666.45,402.455 666.473,402.113C666.491,401.812 666.486,401.51 666.475,401.207C666.451,400.488 666.403,399.766 666.5,399.049C666.835,396.588 668.271,394.477 669.98,392.736C671.789,390.893 673.807,389.373 676.093,388.158C678.546,386.853 681.091,385.705 683.745,384.867C686.497,383.998 689.32,383.268 692.14,382.656C694.903,382.061 697.758,381.607 700.594,381.762C703.178,381.902 705.643,382.867 708.174,383.328C709.073,383.49 710.001,383.613 710.899,383.375C711.634,383.178 712.265,382.754 712.917,382.383C714.155,381.682 715.519,381.182 716.895,380.824C719.666,380.104 723.39,379.752 725.635,381.916" style="fill:rgb(188,190,192);fill-rule:nonzero;"/>
        <path d="M718.569,393.67C717.683,394.215 716.632,394.258 715.649,394.516C714.64,394.783 713.667,395.238 712.737,395.705C710.863,396.643 709.096,397.783 707.187,398.65C707.404,395.949 706.778,393.08 704.911,391.024L704.911,390.791C705.934,391.371 706.541,392.465 706.969,393.516C707.473,394.748 707.782,396.047 708.13,397.328C709.762,396.682 711.321,395.869 712.937,395.184C714.739,394.42 716.615,393.859 718.569,393.67" style="fill:rgb(188,190,192);fill-rule:nonzero;"/>
        <path d="M716.528,399.82C716.726,400.218 715.967,400.611 715.721,400.806C715.121,401.285 714.487,401.722 713.842,402.138C712.693,402.881 711.51,403.597 710.277,404.191C708.277,405.154 706.143,405.431 704.245,404.097C702.695,403.008 701.715,401.355 700.653,399.836C699.208,397.765 697.297,395.713 695.122,394.383C693.718,393.523 692.155,392.968 690.552,392.605C689.657,392.4 688.749,392.252 687.837,392.136C687.317,392.07 686.795,392.013 686.273,391.965C686.152,391.953 685.049,391.847 685.06,391.822C685.103,391.734 685.776,391.781 685.881,391.779C686.213,391.773 686.544,391.771 686.877,391.777C687.574,391.791 688.271,391.834 688.964,391.908C690.215,392.045 691.456,392.285 692.657,392.656C694.864,393.334 696.804,394.453 698.456,396.054C699.507,397.074 700.529,398.134 701.428,399.293C702.245,400.341 702.919,401.498 703.788,402.508C704.499,403.332 705.391,404.142 706.494,404.369C707.864,404.652 709.005,403.9 710.175,403.32C712.344,402.246 714.455,401.062 716.528,399.82" style="fill:rgb(188,190,192);fill-rule:nonzero;"/>
        <path d="M699.181,398.731C700.117,400.737 698.191,402.577 696.6,403.452C695.717,403.936 694.769,404.268 693.757,404.319C692.49,404.379 691.224,404.155 689.97,404.004C687.393,403.696 684.805,403.448 682.225,403.862C680.118,404.2 678.129,404.944 676.102,405.581C676.631,404.698 677.762,404.454 678.667,404.135C679.761,403.751 680.783,403.245 681.937,403.038C684.323,402.614 686.851,403.042 689.234,403.276C691.319,403.481 693.601,403.711 695.594,402.915C696.48,402.561 697.294,401.981 697.859,401.211C698.167,400.792 698.395,400.321 698.578,399.836C698.687,399.549 698.781,399.256 698.867,398.963C699.012,398.747 698.897,398.731 699.181,398.731C699.59,399.608 699.181,398.731 699.181,398.731" style="fill:rgb(188,190,192);fill-rule:nonzero;"/>
        <path d="M673.424,414.981C673.404,413.711 673.195,412.532 672.801,411.45C672.403,410.366 671.832,409.432 671.082,408.651C670.332,407.87 669.416,407.26 668.334,406.821C667.252,406.385 666.013,406.167 664.618,406.167C662.91,406.167 661.485,406.448 660.34,407.01C659.195,407.573 658.278,408.27 657.592,409.104C656.904,409.938 656.415,410.844 656.124,411.823C655.832,412.803 655.687,413.711 655.687,414.544C655.687,415.876 655.895,417.075 656.311,418.137C656.728,419.2 657.32,420.108 658.091,420.858C658.861,421.608 659.794,422.18 660.886,422.577C661.979,422.971 663.213,423.17 664.587,423.17C666.731,423.17 668.501,422.706 669.897,421.78C671.29,420.852 672.32,419.377 672.988,417.356L671.551,417.356C671.404,417.711 671.202,418.149 670.942,418.669C670.681,419.19 670.302,419.69 669.803,420.17C669.303,420.649 668.647,421.061 667.834,421.405C667.023,421.749 665.991,421.92 664.742,421.92C663.535,421.92 662.463,421.749 661.528,421.405C660.589,421.061 659.798,420.577 659.153,419.95C658.507,419.327 658.013,418.59 657.67,417.747C657.326,416.903 657.144,415.981 657.123,414.981L673.424,414.981ZM657.123,413.731C657.436,411.792 658.216,410.256 659.465,409.12C660.715,407.985 662.38,407.417 664.462,407.417C665.377,407.417 666.246,407.542 667.07,407.792C667.892,408.042 668.631,408.422 669.286,408.932C669.943,409.442 670.489,410.1 670.926,410.901C671.363,411.704 671.654,412.647 671.801,413.731L657.123,413.731ZM692.005,411.698C691.963,411.01 691.74,410.338 691.334,409.682C690.928,409.026 690.371,408.438 689.663,407.917C688.955,407.397 688.103,406.975 687.103,406.651C686.103,406.327 684.999,406.167 683.791,406.167C682.564,406.167 681.403,406.354 680.31,406.729C679.217,407.104 678.259,407.655 677.438,408.385C676.615,409.116 675.964,410.022 675.486,411.106C675.006,412.188 674.767,413.428 674.767,414.825C674.767,416.075 674.991,417.211 675.439,418.231C675.886,419.252 676.51,420.127 677.313,420.858C678.113,421.586 679.066,422.155 680.17,422.561C681.274,422.967 682.481,423.17 683.791,423.17C684.792,423.17 685.754,423.049 686.681,422.811C687.607,422.573 688.445,422.202 689.195,421.702C689.944,421.202 690.585,420.565 691.115,419.795C691.647,419.024 692.016,418.118 692.225,417.075L690.787,417.075C690.601,417.909 690.282,418.627 689.835,419.233C689.387,419.836 688.852,420.336 688.226,420.733C687.603,421.127 686.909,421.426 686.151,421.624C685.39,421.821 684.604,421.92 683.791,421.92C682.356,421.92 681.148,421.67 680.17,421.17C679.192,420.67 678.41,420.061 677.827,419.34C677.245,418.622 676.828,417.852 676.577,417.028C676.329,416.206 676.203,415.471 676.203,414.825C676.203,413.866 676.361,412.944 676.672,412.059C676.985,411.172 677.458,410.385 678.093,409.698C678.727,409.01 679.519,408.46 680.467,408.042C681.413,407.626 682.522,407.417 683.791,407.417C684.749,407.417 685.634,407.547 686.447,407.807C687.259,408.069 687.961,408.401 688.555,408.807C689.149,409.213 689.62,409.672 689.976,410.182C690.33,410.694 690.527,411.2 690.57,411.698L692.005,411.698ZM707.084,422.643L707.084,421.393L695.645,421.393L695.645,406.639L694.218,406.639L694.218,422.643L707.084,422.643ZM710.867,406.639L709.439,406.639L709.439,422.643L710.867,422.643L710.867,406.639ZM724.42,415.766C726.17,415.766 727.449,415.338 728.262,414.485C729.073,413.631 729.48,412.526 729.48,411.172C729.48,410.233 729.328,409.467 729.027,408.874C728.725,408.28 728.339,407.821 727.871,407.499C727.403,407.176 726.876,406.952 726.294,406.827C725.711,406.7 725.139,406.639 724.576,406.639L713.72,406.639L713.72,422.643L715.148,422.643L715.148,415.766L724.42,415.766ZM724.171,407.889C724.502,407.889 724.899,407.905 725.357,407.936C725.815,407.967 726.252,408.086 726.669,408.295C727.086,408.504 727.434,408.833 727.715,409.28C727.996,409.727 728.136,410.368 728.136,411.202C728.136,411.848 728.028,412.385 727.808,412.811C727.59,413.239 727.309,413.577 726.966,413.829C726.622,414.079 726.221,414.254 725.764,414.36C725.304,414.463 724.846,414.516 724.389,414.516L715.148,414.516L715.148,407.889L724.171,407.889ZM746.218,411.354C746.176,410.729 746.04,410.11 745.812,409.495C745.582,408.881 745.196,408.323 744.656,407.823C744.114,407.323 743.37,406.922 742.423,406.62C741.476,406.317 740.264,406.167 738.784,406.167C737.431,406.167 736.318,406.317 735.443,406.62C734.57,406.922 733.882,407.303 733.383,407.76C732.883,408.219 732.54,408.71 732.352,409.229C732.165,409.751 732.071,410.241 732.071,410.7C732.071,411.428 732.212,412.032 732.491,412.512C732.773,412.991 733.132,413.381 733.57,413.684C734.007,413.987 734.491,414.221 735.022,414.387C735.553,414.553 736.068,414.669 736.569,414.731L742.19,415.481C743.125,415.606 743.896,415.887 744.5,416.325C745.104,416.762 745.405,417.45 745.405,418.387C745.405,419.534 744.957,420.409 744.064,421.014C743.167,421.618 741.668,421.92 739.566,421.92C738.004,421.92 736.786,421.774 735.913,421.483C735.038,421.19 734.376,420.831 733.929,420.403C733.481,419.977 733.195,419.518 733.07,419.03C732.945,418.54 732.862,418.086 732.82,417.669L731.385,417.669C731.446,418.669 731.681,419.518 732.086,420.215C732.491,420.915 733.039,421.483 733.726,421.92C734.412,422.358 735.219,422.676 736.146,422.874C737.072,423.071 738.087,423.17 739.191,423.17C739.878,423.17 740.658,423.124 741.533,423.03C742.408,422.936 743.239,422.727 744.031,422.405C744.822,422.081 745.488,421.602 746.03,420.965C746.571,420.331 746.843,419.473 746.843,418.387C746.843,417.68 746.723,417.069 746.483,416.559C746.244,416.049 745.9,415.622 745.452,415.278C745.005,414.934 744.474,414.665 743.86,414.465C743.245,414.268 742.564,414.116 741.815,414.012L736.725,413.325C735.766,413.2 734.99,412.934 734.398,412.528C733.804,412.122 733.507,411.481 733.507,410.604C733.507,410.188 733.596,409.788 733.773,409.401C733.95,409.016 734.241,408.676 734.648,408.385C735.053,408.094 735.589,407.858 736.256,407.682C736.921,407.504 737.743,407.417 738.722,407.417C740.804,407.417 742.308,407.741 743.236,408.385C744.161,409.032 744.676,410.022 744.781,411.354L746.218,411.354ZM766.047,414.981C766.026,413.711 765.818,412.532 765.422,411.45C765.027,410.366 764.455,409.432 763.705,408.651C762.956,407.87 762.039,407.26 760.957,406.821C759.874,406.385 758.636,406.167 757.241,406.167C755.533,406.167 754.108,406.448 752.963,407.01C751.818,407.573 750.902,408.27 750.215,409.104C749.528,409.938 749.038,410.844 748.746,411.823C748.454,412.803 748.31,413.711 748.31,414.544C748.31,415.876 748.517,417.075 748.934,418.137C749.351,419.2 749.944,420.108 750.715,420.858C751.484,421.608 752.415,422.18 753.509,422.577C754.602,422.971 755.836,423.17 757.209,423.17C759.354,423.17 761.123,422.706 762.519,421.78C763.913,420.852 764.945,419.377 765.61,417.356L764.173,417.356C764.028,417.711 763.824,418.149 763.564,418.669C763.304,419.19 762.925,419.69 762.425,420.17C761.925,420.649 761.269,421.061 760.458,421.405C759.646,421.749 758.615,421.92 757.366,421.92C756.159,421.92 755.086,421.749 754.15,421.405C753.213,421.061 752.42,420.577 751.776,419.95C751.131,419.327 750.637,418.59 750.292,417.747C749.949,416.903 749.767,415.981 749.745,414.981L766.047,414.981ZM749.745,413.731C750.059,411.792 750.839,410.256 752.088,409.12C753.337,407.985 755.003,407.417 757.085,407.417C758,407.417 758.87,407.542 759.693,407.792C760.515,408.042 761.253,408.422 761.91,408.932C762.566,409.442 763.112,410.1 763.549,410.901C763.987,411.704 764.278,412.647 764.424,413.731L749.745,413.731Z" style="fill:rgb(188,190,192);fill-rule:nonzero;"/>
        <path d="M655.687,426.004L659.789,426.004L659.789,426.445L658.004,426.445L658.004,431.5L657.472,431.5L657.472,426.445L655.687,426.445L655.687,426.004ZM660.5,431.5L660.5,426.004L661.033,426.004L661.033,428.363L664.366,428.363L664.366,426.004L664.899,426.004L664.899,431.5L664.366,431.5L664.366,428.805L661.033,428.805L661.033,431.5L660.5,431.5ZM666.073,427.621C666.188,427.272 666.356,426.963 666.578,426.699C666.798,426.434 667.073,426.229 667.4,426.08C667.725,425.934 668.092,425.859 668.5,425.859C668.927,425.859 669.308,425.934 669.642,426.08C669.975,426.229 670.255,426.434 670.479,426.699C670.704,426.963 670.872,427.272 670.985,427.621C671.095,427.975 671.152,428.354 671.152,428.758C671.152,429.16 671.095,429.537 670.985,429.885C670.872,430.234 670.705,430.541 670.483,430.805C670.262,431.07 669.985,431.275 669.654,431.424C669.322,431.572 668.945,431.645 668.522,431.645C668.099,431.645 667.723,431.572 667.392,431.424C667.06,431.275 666.785,431.07 666.566,430.805C666.347,430.541 666.181,430.234 666.069,429.885C665.957,429.537 665.901,429.16 665.901,428.758C665.901,428.354 665.958,427.975 666.073,427.621M669.461,431.008C669.728,430.879 669.948,430.699 670.119,430.473C670.291,430.246 670.417,429.986 670.5,429.695C670.581,429.402 670.62,429.092 670.62,428.758C670.62,427.996 670.432,427.395 670.057,426.957C669.681,426.52 669.167,426.301 668.515,426.301C668.166,426.301 667.858,426.367 667.595,426.5C667.332,426.633 667.114,426.813 666.942,427.041C666.769,427.272 666.641,427.531 666.558,427.824C666.474,428.117 666.433,428.428 666.433,428.758C666.433,429.092 666.474,429.402 666.558,429.695C666.641,429.986 666.769,430.248 666.942,430.477C667.114,430.705 667.333,430.885 667.599,431.012C667.865,431.139 668.175,431.201 668.53,431.201C668.885,431.201 669.195,431.137 669.461,431.008M674.354,428.561C674.777,428.561 675.115,428.471 675.371,428.289C675.626,428.109 675.754,427.836 675.754,427.469C675.754,427.272 675.717,427.104 675.645,426.971C675.572,426.834 675.473,426.729 675.347,426.652C675.222,426.576 675.078,426.524 674.913,426.492C674.749,426.461 674.573,426.445 674.385,426.445L672.694,426.445L672.694,428.561L674.354,428.561ZM672.694,429.004L672.694,431.5L672.163,431.5L672.163,426.004L674.369,426.004C675,426.004 675.477,426.119 675.801,426.352C676.124,426.582 676.287,426.947 676.287,427.447C676.287,427.793 676.215,428.068 676.076,428.272C675.934,428.475 675.7,428.649 675.371,428.791C675.533,428.842 675.663,428.918 675.758,429.024C675.854,429.127 675.925,429.246 675.97,429.379C676.013,429.51 676.043,429.647 676.059,429.787C676.076,429.926 676.085,430.09 676.091,430.277C676.102,430.676 676.124,430.955 676.162,431.119C676.198,431.281 676.253,431.391 676.326,431.445L676.326,431.5L675.739,431.5C675.675,431.393 675.632,431.242 675.606,431.047C675.58,430.85 675.558,430.604 675.542,430.309C675.528,429.984 675.508,429.774 675.488,429.676C675.431,429.406 675.308,429.227 675.121,429.137C674.933,429.049 674.682,429.004 674.369,429.004L672.694,429.004ZM677.303,427.621C677.418,427.272 677.586,426.963 677.809,426.699C678.03,426.434 678.304,426.229 678.63,426.08C678.957,425.934 679.323,425.859 679.731,425.859C680.158,425.859 680.539,425.934 680.873,426.08C681.208,426.229 681.486,426.434 681.71,426.699C681.935,426.963 682.102,427.272 682.215,427.621C682.327,427.975 682.383,428.354 682.383,428.758C682.383,429.16 682.327,429.537 682.215,429.885C682.102,430.234 681.936,430.541 681.714,430.805C681.493,431.07 681.216,431.275 680.885,431.424C680.553,431.572 680.176,431.645 679.753,431.645C679.331,431.645 678.955,431.572 678.623,431.424C678.292,431.275 678.016,431.07 677.797,430.805C677.578,430.541 677.412,430.234 677.3,429.885C677.188,429.537 677.132,429.16 677.132,428.758C677.132,428.354 677.189,427.975 677.303,427.621M680.693,431.008C680.958,430.879 681.178,430.699 681.35,430.473C681.523,430.246 681.649,429.986 681.73,429.695C681.811,429.402 681.851,429.092 681.851,428.758C681.851,427.996 681.664,427.395 681.288,426.957C680.913,426.52 680.398,426.301 679.747,426.301C679.396,426.301 679.089,426.367 678.827,426.5C678.563,426.633 678.345,426.813 678.173,427.041C678,427.272 677.873,427.531 677.789,427.824C677.706,428.117 677.664,428.428 677.664,428.758C677.664,429.092 677.706,429.402 677.789,429.695C677.873,429.986 678,430.248 678.173,430.477C678.345,430.705 678.564,430.885 678.831,431.012C679.096,431.139 679.407,431.201 679.761,431.201C680.116,431.201 680.427,431.137 680.693,431.008M683.409,426.004L683.941,426.004L683.941,429.279C683.941,429.955 684.072,430.445 684.333,430.748C684.593,431.051 685.013,431.201 685.592,431.201C686.187,431.201 686.611,431.047 686.865,430.736C687.117,430.426 687.244,429.94 687.244,429.279L687.244,426.004L687.776,426.004L687.776,429.432C687.776,430.149 687.591,430.697 687.224,431.076C686.856,431.455 686.313,431.645 685.592,431.645C684.867,431.645 684.322,431.455 683.957,431.072C683.591,430.691 683.409,430.145 683.409,429.432L683.409,426.004ZM691.408,429.104L691.408,428.66L693.818,428.66L693.818,431.5L693.365,431.5L693.365,430.561C693.155,430.912 692.884,431.18 692.549,431.365C692.216,431.553 691.786,431.645 691.259,431.645C690.518,431.645 689.921,431.395 689.47,430.893C689.018,430.393 688.793,429.668 688.793,428.721C688.793,428.309 688.847,427.93 688.954,427.584C689.06,427.238 689.223,426.936 689.439,426.676C689.656,426.416 689.928,426.215 690.256,426.072C690.585,425.93 690.966,425.859 691.4,425.859C692.01,425.859 692.525,426.006 692.945,426.301C693.366,426.596 693.635,427.029 693.756,427.6L693.208,427.6C693.119,427.197 692.911,426.881 692.582,426.649C692.253,426.418 691.872,426.301 691.439,426.301C691.073,426.301 690.758,426.363 690.493,426.488C690.225,426.613 690.006,426.791 689.834,427.024C689.662,427.254 689.534,427.531 689.451,427.852C689.367,428.172 689.326,428.529 689.326,428.928C689.326,429.233 689.371,429.524 689.461,429.797C689.554,430.072 689.688,430.315 689.866,430.527C690.042,430.738 690.259,430.904 690.515,431.024C690.771,431.143 691.055,431.201 691.368,431.201C691.712,431.201 692.039,431.125 692.346,430.969C692.655,430.815 692.894,430.57 693.067,430.24C693.218,429.949 693.298,429.572 693.309,429.104L691.408,429.104ZM695.055,431.5L695.055,426.004L695.586,426.004L695.586,428.363L698.92,428.363L698.92,426.004L699.454,426.004L699.454,431.5L698.92,431.5L698.92,428.805L695.586,428.805L695.586,431.5L695.055,431.5ZM701.206,431.057L702.559,431.057C703.191,431.057 703.635,430.986 703.894,430.844C704.154,430.701 704.282,430.402 704.282,429.951C704.282,429.727 704.244,429.545 704.168,429.404C704.092,429.264 703.983,429.156 703.84,429.076C703.697,428.998 703.525,428.945 703.327,428.916C703.128,428.889 702.894,428.873 702.623,428.873L701.206,428.873L701.206,431.057ZM701.206,428.432L702.552,428.432C703.084,428.432 703.462,428.344 703.686,428.168C703.912,427.992 704.023,427.733 704.023,427.387C704.023,427.039 703.905,426.797 703.667,426.656C703.431,426.516 703.019,426.445 702.435,426.445L701.206,426.445L701.206,428.432ZM700.674,431.5L700.674,426.004L702.708,426.004C703.345,426.004 703.812,426.125 704.11,426.371C704.407,426.613 704.556,426.953 704.556,427.387C704.556,427.742 704.469,428.018 704.297,428.215C704.125,428.41 703.912,428.529 703.656,428.568L703.656,428.584C704.037,428.641 704.326,428.789 704.521,429.031C704.716,429.272 704.814,429.58 704.814,429.951C704.814,430.231 704.77,430.471 704.681,430.668C704.592,430.865 704.466,431.027 704.305,431.149C704.142,431.272 703.951,431.361 703.726,431.416C703.502,431.471 703.252,431.5 702.975,431.5L700.674,431.5ZM708.039,428.561C708.461,428.561 708.8,428.471 709.057,428.289C709.312,428.109 709.439,427.836 709.439,427.469C709.439,427.272 709.404,427.104 709.331,426.971C709.257,426.834 709.158,426.729 709.033,426.652C708.908,426.576 708.763,426.524 708.598,426.492C708.435,426.461 708.258,426.445 708.07,426.445L706.379,426.445L706.379,428.561L708.039,428.561ZM706.379,429.004L706.379,431.5L705.847,431.5L705.847,426.004L708.054,426.004C708.686,426.004 709.164,426.119 709.487,426.352C709.811,426.582 709.972,426.947 709.972,427.447C709.972,427.793 709.902,428.068 709.76,428.272C709.62,428.475 709.384,428.649 709.057,428.791C709.218,428.842 709.347,428.918 709.444,429.024C709.54,429.127 709.611,429.246 709.655,429.379C709.699,429.51 709.729,429.647 709.745,429.787C709.76,429.926 709.771,430.09 709.776,430.277C709.787,430.676 709.811,430.955 709.846,431.119C709.883,431.281 709.938,431.391 710.011,431.445L710.011,431.5L709.424,431.5C709.362,431.393 709.316,431.242 709.291,431.047C709.264,430.85 709.245,430.604 709.229,430.309C709.212,429.984 709.194,429.774 709.173,429.676C709.116,429.406 708.994,429.227 708.806,429.137C708.618,429.049 708.369,429.004 708.054,429.004L706.379,429.004ZM711.036,431.5L711.036,426.004L714.786,426.004L714.786,426.445L711.569,426.445L711.569,428.432L714.473,428.432L714.473,428.873L711.569,428.873L711.569,431.057L714.863,431.057L714.863,431.5L711.036,431.5ZM715.779,431.5L715.779,426.004L717.705,426.004C718.085,426.004 718.41,426.031 718.678,426.084C718.948,426.137 719.203,426.248 719.442,426.416C719.619,426.539 719.769,426.693 719.892,426.883C720.014,427.068 720.112,427.272 720.182,427.484C720.252,427.699 720.304,427.912 720.333,428.125C720.366,428.34 720.381,428.545 720.381,428.744C720.381,429.147 720.328,429.531 720.221,429.897C720.114,430.264 719.941,430.574 719.701,430.828C719.465,431.088 719.182,431.266 718.851,431.359C718.519,431.453 718.137,431.5 717.705,431.5L715.779,431.5ZM716.312,431.057L717.586,431.057C717.864,431.057 718.103,431.041 718.307,431.008C718.51,430.975 718.711,430.906 718.91,430.805C719.087,430.715 719.239,430.594 719.364,430.443C719.49,430.293 719.587,430.123 719.658,429.936C719.728,429.748 719.778,429.553 719.806,429.356C719.834,429.156 719.849,428.953 719.849,428.744C719.849,428.531 719.834,428.322 719.806,428.119C719.778,427.914 719.726,427.721 719.654,427.535C719.58,427.35 719.48,427.18 719.351,427.027C719.223,426.875 719.066,426.75 718.879,426.652C718.727,426.572 718.543,426.516 718.327,426.488C718.111,426.461 717.864,426.445 717.586,426.445L716.312,426.445L716.312,431.057Z" style="fill:rgb(188,190,192);fill-rule:nonzero;"/>
        <rect x="723.234" y="424.586" width="0.477" height="8.029" style="fill:rgb(188,190,192);fill-rule:nonzero;"/>
        <path d="M727.04,431.5L727.04,426.004L729.099,426.004C729.453,426.004 729.751,426.043 729.991,426.123C730.231,426.201 730.419,426.311 730.559,426.451C730.696,426.59 730.794,426.752 730.852,426.936C730.909,427.117 730.937,427.318 730.937,427.537C730.937,427.832 730.877,428.082 730.758,428.283C730.638,428.484 730.475,428.641 730.269,428.756C730.062,428.871 729.833,428.951 729.58,429C729.327,429.049 729.06,429.072 728.778,429.072L727.572,429.072L727.572,431.5L727.04,431.5ZM728.794,428.631C729.06,428.631 729.29,428.613 729.481,428.58C729.676,428.547 729.841,428.488 729.978,428.408C730.117,428.326 730.223,428.213 730.296,428.066C730.368,427.918 730.405,427.729 730.405,427.5C730.405,427.148 730.286,426.887 730.05,426.709C729.812,426.533 729.446,426.445 728.951,426.445L727.572,426.445L727.572,428.631L728.794,428.631ZM730.711,431.5L732.926,426.004L733.527,426.004L735.687,431.5L735.14,431.5L734.489,429.775L731.923,429.775L731.258,431.5L730.711,431.5ZM732.103,429.332L734.311,429.332L733.207,426.445L732.103,429.332ZM738.591,428.561C739.015,428.561 739.353,428.471 739.608,428.291C739.863,428.109 739.992,427.836 739.992,427.469C739.992,427.271 739.955,427.104 739.882,426.971C739.81,426.834 739.711,426.729 739.585,426.652C739.46,426.576 739.314,426.523 739.15,426.492C738.986,426.461 738.81,426.445 738.623,426.445L736.932,426.445L736.932,428.561L738.591,428.561ZM736.932,429.004L736.932,431.5L736.399,431.5L736.399,426.004L738.606,426.004C739.238,426.004 739.716,426.119 740.039,426.352C740.361,426.582 740.524,426.947 740.524,427.447C740.524,427.793 740.454,428.068 740.312,428.271C740.172,428.475 739.936,428.648 739.608,428.789C739.769,428.842 739.899,428.918 739.996,429.023C740.092,429.127 740.162,429.246 740.207,429.377C740.251,429.51 740.281,429.646 740.296,429.787C740.312,429.926 740.322,430.09 740.328,430.279C740.339,430.676 740.361,430.955 740.399,431.119C740.435,431.281 740.489,431.391 740.561,431.445L740.561,431.5L739.977,431.5C739.914,431.393 739.869,431.242 739.843,431.047C739.816,430.852 739.796,430.605 739.78,430.311C739.765,429.984 739.746,429.773 739.726,429.676C739.669,429.404 739.545,429.227 739.357,429.137C739.17,429.049 738.92,429.004 738.606,429.004L736.932,429.004ZM740.938,426.004L745.038,426.004L745.038,426.445L743.255,426.445L743.255,431.5L742.723,431.5L742.723,426.445L740.938,426.445L740.938,426.004ZM746.291,426.705L746.275,426.705L746.275,431.5L745.743,431.5L745.743,426.004L746.347,426.004L749.602,430.805L749.617,430.805L749.617,426.004L750.15,426.004L750.15,431.5L749.531,431.5L746.291,426.705ZM751.37,431.5L751.37,426.004L755.118,426.004L755.118,426.445L751.902,426.445L751.902,428.432L754.806,428.432L754.806,428.873L751.902,428.873L751.902,431.057L755.196,431.057L755.196,431.5L751.37,431.5ZM758.295,428.561C758.718,428.561 759.057,428.471 759.311,428.291C759.568,428.109 759.696,427.836 759.696,427.469C759.696,427.271 759.659,427.104 759.586,426.971C759.514,426.834 759.415,426.729 759.289,426.652C759.165,426.576 759.02,426.523 758.855,426.492C758.69,426.461 758.515,426.445 758.326,426.445L756.637,426.445L756.637,428.561L758.295,428.561ZM756.637,429.004L756.637,431.5L756.104,431.5L756.104,426.004L758.311,426.004C758.942,426.004 759.42,426.119 759.744,426.352C760.066,426.582 760.228,426.947 760.228,427.447C760.228,427.793 760.158,428.068 760.018,428.271C759.877,428.475 759.642,428.648 759.311,428.789C759.475,428.842 759.603,428.918 759.701,429.023C759.797,429.127 759.867,429.246 759.912,429.377C759.956,429.51 759.985,429.646 760.001,429.787C760.018,429.926 760.027,430.09 760.033,430.279C760.043,430.676 760.066,430.955 760.103,431.119C760.14,431.281 760.194,431.391 760.267,431.445L760.267,431.5L759.681,431.5C759.618,431.393 759.573,431.242 759.547,431.047C759.521,430.852 759.501,430.605 759.485,430.311C759.47,429.984 759.451,429.773 759.43,429.676C759.372,429.404 759.25,429.227 759.062,429.137C758.874,429.049 758.624,429.004 758.311,429.004L756.637,429.004ZM761.512,429.857C761.554,430.326 761.719,430.668 762.004,430.881C762.291,431.096 762.667,431.201 763.131,431.201C763.606,431.201 763.964,431.094 764.203,430.879C764.443,430.662 764.563,430.391 764.563,430.064C764.563,429.877 764.521,429.717 764.438,429.584C764.355,429.451 764.244,429.346 764.102,429.264C763.962,429.182 763.808,429.117 763.641,429.068C763.473,429.02 763.258,428.965 762.998,428.904C762.69,428.834 762.44,428.768 762.246,428.705C762.054,428.645 761.871,428.561 761.7,428.453C761.528,428.348 761.389,428.201 761.284,428.016C761.18,427.83 761.129,427.602 761.129,427.332C761.129,426.924 761.296,426.578 761.633,426.289C761.969,426.002 762.437,425.859 763.037,425.859C763.643,425.859 764.11,426.014 764.438,426.324C764.768,426.635 764.931,427.027 764.931,427.5L764.422,427.5C764.422,427.104 764.29,426.805 764.023,426.604C763.758,426.402 763.429,426.301 763.037,426.301C762.579,426.301 762.231,426.404 761.997,426.611C761.761,426.816 761.645,427.064 761.645,427.355C761.645,427.406 761.65,427.459 761.66,427.516C761.686,427.668 761.745,427.795 761.838,427.896C761.928,427.998 762.041,428.084 762.177,428.152C762.312,428.221 762.456,428.275 762.607,428.316C762.758,428.357 762.955,428.404 763.194,428.453C763.512,428.52 763.769,428.582 763.962,428.641C764.153,428.699 764.339,428.783 764.517,428.893C764.693,429.002 764.836,429.15 764.939,429.34C765.043,429.527 765.096,429.762 765.096,430.041C765.096,430.545 764.915,430.939 764.553,431.221C764.189,431.504 763.685,431.645 763.037,431.645C762.428,431.645 761.935,431.492 761.56,431.184C761.184,430.875 760.995,430.434 760.995,429.857L761.512,429.857Z" style="fill:rgb(188,190,192);fill-rule:nonzero;"/>
        <path d="M775.56,404.723C775.59,405.575 774.636,406.522 774.099,407.094C773.378,407.868 772.48,408.424 771.485,408.785C770.367,409.194 769.113,409.364 767.941,409.09C766.853,408.836 766.031,408.069 765.216,407.35C763.435,405.776 761.345,404.174 758.966,403.67C756.522,403.153 753.998,403.508 751.53,403.207C750.36,403.065 749.287,402.715 748.261,402.137C747.19,401.534 746.084,400.731 745.456,399.653C744.978,398.828 744.79,397.797 744.758,396.86C744.73,396.02 744.825,394.91 745.574,394.371C745.032,396.291 745.204,398.35 746.593,399.875C747.878,401.285 749.791,402.002 751.627,402.368C754.405,402.92 757.286,402.707 760.043,403.387C761.155,403.662 762.215,404.1 763.165,404.739C763.96,405.274 764.641,405.942 765.333,406.602C766.902,408.1 768.762,409.147 770.98,408.379C772.014,408.022 773.046,407.391 773.729,406.53C774.459,405.612 774.304,404.577 773.704,403.623C772.974,402.467 771.969,401.436 771.074,400.405C770.091,399.276 769.089,398.166 768.075,397.067C766.102,394.926 764.141,392.762 761.98,390.807C761.081,389.993 760.115,389.256 759.21,388.45C758.35,387.68 757.527,386.946 756.523,386.36C754.53,385.2 752.381,384.307 750.126,383.786C750.54,384.553 751.276,385.155 751.951,385.688C752.3,385.961 752.656,386.262 753.04,386.487C753.248,386.612 753.846,386.791 753.738,387.133C748.158,385.928 742.306,386.651 736.848,388.102C731.735,389.461 726.748,391.471 722.368,394.453C721.179,395.264 720.04,396.143 718.963,397.094C720.43,394.955 722.807,393.645 724.954,392.28C726.749,391.139 728.612,390.1 730.541,389.203C734.883,387.186 739.55,385.95 744.323,385.514C746.277,385.334 748.243,385.284 750.205,385.342C750.059,384.196 748.484,384.116 748.4,382.93C749.714,383.403 751.138,383.489 752.494,383.805C753.892,384.129 755.142,384.778 756.354,385.526C757.578,386.282 758.805,387.051 759.997,387.856C761.143,388.631 762.151,389.627 763.119,390.612C765.094,392.614 766.882,394.789 768.84,396.805C769.814,397.805 770.817,398.774 771.767,399.797C772.732,400.838 773.61,401.938 774.497,403.043C774.849,403.485 775.54,404.119 775.56,404.723" style="fill:rgb(188,190,192);fill-rule:nonzero;"/>
        <path d="M725.635,381.916C728.064,384.258 728.06,389.223 725.478,391.455C725.322,391.59 725.155,391.715 724.979,391.826C724.714,391.996 724.628,392.041 724.321,391.939C723.745,391.748 723.178,391.541 722.615,391.312C721.498,390.855 720.412,390.318 719.389,389.68C717.423,388.453 715.716,386.838 714.488,384.875C714.797,384.734 715.347,385.576 715.529,385.77C716,386.275 716.453,386.801 716.965,387.264C717.925,388.137 719.069,388.797 720.236,389.357C721.461,389.945 722.735,390.426 723.997,390.92C724.334,391.053 724.441,391.129 724.751,390.936C724.937,390.82 725.113,390.691 725.278,390.551C725.623,390.252 725.918,389.895 726.153,389.504C727.067,387.988 727.115,386.02 726.583,384.365C725.97,382.455 724.473,381.191 722.454,380.93C720.265,380.643 717.942,381.256 715.847,381.838C713.784,382.41 711.928,383.603 710.877,385.498C706.545,382.617 700.809,382.256 695.768,382.746C692.858,383.029 690.087,383.852 687.267,384.58C684.609,385.268 681.989,386.139 679.49,387.273C675.635,389.023 671.637,391.441 669.219,394.99C668.118,396.604 667.092,398.572 667.318,400.584C667.435,401.627 667.913,402.502 668.734,403.16C669.473,403.752 670.323,404.203 670.921,404.957C669.737,404.978 668.757,404.109 667.651,403.809C666.453,403.48 665.192,403.469 663.966,403.619C661.541,403.918 659.284,404.848 656.948,405.502C656.833,405.199 657.353,404.824 657.541,404.676C657.912,404.385 658.316,404.143 658.751,403.961C659.858,403.498 661.057,403.232 662.235,403.029C662.829,402.926 663.428,402.844 664.029,402.789C664.658,402.732 665.33,402.834 665.942,402.648C666.265,402.551 666.45,402.455 666.473,402.113C666.491,401.812 666.486,401.51 666.475,401.207C666.451,400.488 666.403,399.766 666.5,399.049C666.835,396.588 668.271,394.477 669.98,392.736C671.789,390.893 673.807,389.373 676.093,388.158C678.546,386.853 681.091,385.705 683.745,384.867C686.497,383.998 689.32,383.268 692.14,382.656C694.903,382.061 697.758,381.607 700.594,381.762C703.178,381.902 705.643,382.867 708.174,383.328C709.073,383.49 710.001,383.613 710.899,383.375C711.634,383.178 712.265,382.754 712.917,382.383C714.155,381.682 715.519,381.182 716.895,380.824C719.666,380.104 723.39,379.752 725.635,381.916" style="fill:rgb(188,190,192);fill-rule:nonzero;"/>
        <path d="M718.569,393.67C717.683,394.215 716.632,394.258 715.649,394.516C714.64,394.783 713.667,395.238 712.737,395.705C710.863,396.643 709.096,397.783 707.187,398.65C707.404,395.949 706.778,393.08 704.911,391.024L704.911,390.791C705.934,391.371 706.541,392.465 706.969,393.516C707.473,394.748 707.782,396.047 708.13,397.328C709.762,396.682 711.321,395.869 712.937,395.184C714.739,394.42 716.615,393.859 718.569,393.67" style="fill:rgb(188,190,192);fill-rule:nonzero;"/>
        <path d="M716.528,399.82C716.726,400.218 715.967,400.611 715.721,400.806C715.121,401.285 714.487,401.722 713.842,402.138C712.693,402.881 711.51,403.597 710.277,404.191C708.277,405.154 706.143,405.431 704.245,404.097C702.695,403.008 701.715,401.355 700.653,399.836C699.208,397.765 697.297,395.713 695.122,394.383C693.718,393.523 692.155,392.968 690.552,392.605C689.657,392.4 688.749,392.252 687.837,392.136C687.317,392.07 686.795,392.013 686.273,391.965C686.152,391.953 685.049,391.847 685.06,391.822C685.103,391.734 685.776,391.781 685.881,391.779C686.213,391.773 686.544,391.771 686.877,391.777C687.574,391.791 688.271,391.834 688.964,391.908C690.215,392.045 691.456,392.285 692.657,392.656C694.864,393.334 696.804,394.453 698.456,396.054C699.507,397.074 700.529,398.134 701.428,399.293C702.245,400.341 702.919,401.498 703.788,402.508C704.499,403.332 705.391,404.142 706.494,404.369C707.864,404.652 709.005,403.9 710.175,403.32C712.344,402.246 714.455,401.062 716.528,399.82" style="fill:rgb(188,190,192);fill-rule:nonzero;"/>
        <path d="M699.181,398.731C700.117,400.737 698.191,402.577 696.6,403.452C695.717,403.936 694.769,404.268 693.757,404.319C692.49,404.379 691.224,404.155 689.97,404.004C687.393,403.696 684.805,403.448 682.225,403.862C680.118,404.2 678.129,404.944 676.102,405.581C676.631,404.698 677.762,404.454 678.667,404.135C679.761,403.751 680.783,403.245 681.937,403.038C684.323,402.614 686.851,403.042 689.234,403.276C691.319,403.481 693.601,403.711 695.594,402.915C696.48,402.561 697.294,401.981 697.859,401.211C698.167,400.792 698.395,400.321 698.578,399.836C698.687,399.549 698.781,399.256 698.867,398.963C699.012,398.747 698.897,398.731 699.181,398.731C699.59,399.608 699.181,398.731 699.181,398.731" style="fill:rgb(188,190,192);fill-rule:nonzero;"/>
        <path d="M673.424,414.981C673.404,413.711 673.195,412.532 672.801,411.45C672.403,410.366 671.832,409.432 671.082,408.651C670.332,407.87 669.416,407.26 668.334,406.821C667.252,406.385 666.013,406.167 664.618,406.167C662.91,406.167 661.485,406.448 660.34,407.01C659.195,407.573 658.278,408.27 657.592,409.104C656.904,409.938 656.415,410.844 656.124,411.823C655.832,412.803 655.687,413.711 655.687,414.544C655.687,415.876 655.895,417.075 656.311,418.137C656.728,419.2 657.32,420.108 658.091,420.858C658.861,421.608 659.794,422.18 660.886,422.577C661.979,422.971 663.213,423.17 664.587,423.17C666.731,423.17 668.501,422.706 669.897,421.78C671.29,420.852 672.32,419.377 672.988,417.356L671.551,417.356C671.404,417.711 671.202,418.149 670.942,418.669C670.681,419.19 670.302,419.69 669.803,420.17C669.303,420.649 668.647,421.061 667.834,421.405C667.023,421.749 665.991,421.92 664.742,421.92C663.535,421.92 662.463,421.749 661.528,421.405C660.589,421.061 659.798,420.577 659.153,419.95C658.507,419.327 658.013,418.59 657.67,417.747C657.326,416.903 657.144,415.981 657.123,414.981L673.424,414.981ZM657.123,413.731C657.436,411.792 658.216,410.256 659.465,409.12C660.715,407.985 662.38,407.417 664.462,407.417C665.377,407.417 666.246,407.542 667.07,407.792C667.892,408.042 668.631,408.422 669.286,408.932C669.943,409.442 670.489,410.1 670.926,410.901C671.363,411.704 671.654,412.647 671.801,413.731L657.123,413.731ZM692.005,411.698C691.963,411.01 691.74,410.338 691.334,409.682C690.928,409.026 690.371,408.438 689.663,407.917C688.955,407.397 688.103,406.975 687.103,406.651C686.103,406.327 684.999,406.167 683.791,406.167C682.564,406.167 681.403,406.354 680.31,406.729C679.217,407.104 678.259,407.655 677.438,408.385C676.615,409.116 675.964,410.022 675.486,411.106C675.006,412.188 674.767,413.428 674.767,414.825C674.767,416.075 674.991,417.211 675.439,418.231C675.886,419.252 676.51,420.127 677.313,420.858C678.113,421.586 679.066,422.155 680.17,422.561C681.274,422.967 682.481,423.17 683.791,423.17C684.792,423.17 685.754,423.049 686.681,422.811C687.607,422.573 688.445,422.202 689.195,421.702C689.944,421.202 690.585,420.565 691.115,419.795C691.647,419.024 692.016,418.118 692.225,417.075L690.787,417.075C690.601,417.909 690.282,418.627 689.835,419.233C689.387,419.836 688.852,420.336 688.226,420.733C687.603,421.127 686.909,421.426 686.151,421.624C685.39,421.821 684.604,421.92 683.791,421.92C682.356,421.92 681.148,421.67 680.17,421.17C679.192,420.67 678.41,420.061 677.827,419.34C677.245,418.622 676.828,417.852 676.577,417.028C676.329,416.206 676.203,415.471 676.203,414.825C676.203,413.866 676.361,412.944 676.672,412.059C676.985,411.172 677.458,410.385 678.093,409.698C678.727,409.01 679.519,408.46 680.467,408.042C681.413,407.626 682.522,407.417 683.791,407.417C684.749,407.417 685.634,407.547 686.447,407.807C687.259,408.069 687.961,408.401 688.555,408.807C689.149,409.213 689.62,409.672 689.976,410.182C690.33,410.694 690.527,411.2 690.57,411.698L692.005,411.698ZM707.084,422.643L707.084,421.393L695.645,421.393L695.645,406.639L694.218,406.639L694.218,422.643L707.084,422.643ZM710.867,406.639L709.439,406.639L709.439,422.643L710.867,422.643L710.867,406.639ZM724.42,415.766C726.17,415.766 727.449,415.338 728.262,414.485C729.073,413.631 729.48,412.526 729.48,411.172C729.48,410.233 729.328,409.467 729.027,408.874C728.725,408.28 728.339,407.821 727.871,407.499C727.403,407.176 726.876,406.952 726.294,406.827C725.711,406.7 725.139,406.639 724.576,406.639L713.72,406.639L713.72,422.643L715.148,422.643L715.148,415.766L724.42,415.766ZM724.171,407.889C724.502,407.889 724.899,407.905 725.357,407.936C725.815,407.967 726.252,408.086 726.669,408.295C727.086,408.504 727.434,408.833 727.715,409.28C727.996,409.727 728.136,410.368 728.136,411.202C728.136,411.848 728.028,412.385 727.808,412.811C727.59,413.239 727.309,413.577 726.966,413.829C726.622,414.079 726.221,414.254 725.764,414.36C725.304,414.463 724.846,414.516 724.389,414.516L715.148,414.516L715.148,407.889L724.171,407.889ZM746.218,411.354C746.176,410.729 746.04,410.11 745.812,409.495C745.582,408.881 745.196,408.323 744.656,407.823C744.114,407.323 743.37,406.922 742.423,406.62C741.476,406.317 740.264,406.167 738.784,406.167C737.431,406.167 736.318,406.317 735.443,406.62C734.57,406.922 733.882,407.303 733.383,407.76C732.883,408.219 732.54,408.71 732.352,409.229C732.165,409.751 732.071,410.241 732.071,410.7C732.071,411.428 732.212,412.032 732.491,412.512C732.773,412.991 733.132,413.381 733.57,413.684C734.007,413.987 734.491,414.221 735.022,414.387C735.553,414.553 736.068,414.669 736.569,414.731L742.19,415.481C743.125,415.606 743.896,415.887 744.5,416.325C745.104,416.762 745.405,417.45 745.405,418.387C745.405,419.534 744.957,420.409 744.064,421.014C743.167,421.618 741.668,421.92 739.566,421.92C738.004,421.92 736.786,421.774 735.913,421.483C735.038,421.19 734.376,420.831 733.929,420.403C733.481,419.977 733.195,419.518 733.07,419.03C732.945,418.54 732.862,418.086 732.82,417.669L731.385,417.669C731.446,418.669 731.681,419.518 732.086,420.215C732.491,420.915 733.039,421.483 733.726,421.92C734.412,422.358 735.219,422.676 736.146,422.874C737.072,423.071 738.087,423.17 739.191,423.17C739.878,423.17 740.658,423.124 741.533,423.03C742.408,422.936 743.239,422.727 744.031,422.405C744.822,422.081 745.488,421.602 746.03,420.965C746.571,420.331 746.843,419.473 746.843,418.387C746.843,417.68 746.723,417.069 746.483,416.559C746.244,416.049 745.9,415.622 745.452,415.278C745.005,414.934 744.474,414.665 743.86,414.465C743.245,414.268 742.564,414.116 741.815,414.012L736.725,413.325C735.766,413.2 734.99,412.934 734.398,412.528C733.804,412.122 733.507,411.481 733.507,410.604C733.507,410.188 733.596,409.788 733.773,409.401C733.95,409.016 734.241,408.676 734.648,408.385C735.053,408.094 735.589,407.858 736.256,407.682C736.921,407.504 737.743,407.417 738.722,407.417C740.804,407.417 742.308,407.741 743.236,408.385C744.161,409.032 744.676,410.022 744.781,411.354L746.218,411.354ZM766.047,414.981C766.026,413.711 765.818,412.532 765.422,411.45C765.027,410.366 764.455,409.432 763.705,408.651C762.956,407.87 762.039,407.26 760.957,406.821C759.874,406.385 758.636,406.167 757.241,406.167C755.533,406.167 754.108,406.448 752.963,407.01C751.818,407.573 750.902,408.27 750.215,409.104C749.528,409.938 749.038,410.844 748.746,411.823C748.454,412.803 748.31,413.711 748.31,414.544C748.31,415.876 748.517,417.075 748.934,418.137C749.351,419.2 749.944,420.108 750.715,420.858C751.484,421.608 752.415,422.18 753.509,422.577C754.602,422.971 755.836,423.17 757.209,423.17C759.354,423.17 761.123,422.706 762.519,421.78C763.913,420.852 764.945,419.377 765.61,417.356L764.173,417.356C764.028,417.711 763.824,418.149 763.564,418.669C763.304,419.19 762.925,419.69 762.425,420.17C761.925,420.649 761.269,421.061 760.458,421.405C759.646,421.749 758.615,421.92 757.366,421.92C756.159,421.92 755.086,421.749 754.15,421.405C753.213,421.061 752.42,420.577 751.776,419.95C751.131,419.327 750.637,418.59 750.292,417.747C749.949,416.903 749.767,415.981 749.745,414.981L766.047,414.981ZM749.745,413.731C750.059,411.792 750.839,410.256 752.088,409.12C753.337,407.985 755.003,407.417 757.085,407.417C758,407.417 758.87,407.542 759.693,407.792C760.515,408.042 761.253,408.422 761.91,408.932C762.566,409.442 763.112,410.1 763.549,410.901C763.987,411.704 764.278,412.647 764.424,413.731L749.745,413.731Z" style="fill:rgb(188,190,192);fill-rule:nonzero;"/>
        <path d="M655.687,426.004L659.789,426.004L659.789,426.445L658.004,426.445L658.004,431.5L657.472,431.5L657.472,426.445L655.687,426.445L655.687,426.004ZM660.5,431.5L660.5,426.004L661.033,426.004L661.033,428.363L664.366,428.363L664.366,426.004L664.899,426.004L664.899,431.5L664.366,431.5L664.366,428.805L661.033,428.805L661.033,431.5L660.5,431.5ZM666.073,427.621C666.188,427.272 666.356,426.963 666.578,426.699C666.798,426.434 667.073,426.229 667.4,426.08C667.725,425.934 668.092,425.859 668.5,425.859C668.927,425.859 669.308,425.934 669.642,426.08C669.975,426.229 670.255,426.434 670.479,426.699C670.704,426.963 670.872,427.272 670.985,427.621C671.095,427.975 671.152,428.354 671.152,428.758C671.152,429.16 671.095,429.537 670.985,429.885C670.872,430.234 670.705,430.541 670.483,430.805C670.262,431.07 669.985,431.275 669.654,431.424C669.322,431.572 668.945,431.645 668.522,431.645C668.099,431.645 667.723,431.572 667.392,431.424C667.06,431.275 666.785,431.07 666.566,430.805C666.347,430.541 666.181,430.234 666.069,429.885C665.957,429.537 665.901,429.16 665.901,428.758C665.901,428.354 665.958,427.975 666.073,427.621M669.461,431.008C669.728,430.879 669.948,430.699 670.119,430.473C670.291,430.246 670.417,429.986 670.5,429.695C670.581,429.402 670.62,429.092 670.62,428.758C670.62,427.996 670.432,427.395 670.057,426.957C669.681,426.52 669.167,426.301 668.515,426.301C668.166,426.301 667.858,426.367 667.595,426.5C667.332,426.633 667.114,426.813 666.942,427.041C666.769,427.272 666.641,427.531 666.558,427.824C666.474,428.117 666.433,428.428 666.433,428.758C666.433,429.092 666.474,429.402 666.558,429.695C666.641,429.986 666.769,430.248 666.942,430.477C667.114,430.705 667.333,430.885 667.599,431.012C667.865,431.139 668.175,431.201 668.53,431.201C668.885,431.201 669.195,431.137 669.461,431.008M674.354,428.561C674.777,428.561 675.115,428.471 675.371,428.289C675.626,428.109 675.754,427.836 675.754,427.469C675.754,427.272 675.717,427.104 675.645,426.971C675.572,426.834 675.473,426.729 675.347,426.652C675.222,426.576 675.078,426.524 674.913,426.492C674.749,426.461 674.573,426.445 674.385,426.445L672.694,426.445L672.694,428.561L674.354,428.561ZM672.694,429.004L672.694,431.5L672.163,431.5L672.163,426.004L674.369,426.004C675,426.004 675.477,426.119 675.801,426.352C676.124,426.582 676.287,426.947 676.287,427.447C676.287,427.793 676.215,428.068 676.076,428.272C675.934,428.475 675.7,428.649 675.371,428.791C675.533,428.842 675.663,428.918 675.758,429.024C675.854,429.127 675.925,429.246 675.97,429.379C676.013,429.51 676.043,429.647 676.059,429.787C676.076,429.926 676.085,430.09 676.091,430.277C676.102,430.676 676.124,430.955 676.162,431.119C676.198,431.281 676.253,431.391 676.326,431.445L676.326,431.5L675.739,431.5C675.675,431.393 675.632,431.242 675.606,431.047C675.58,430.85 675.558,430.604 675.542,430.309C675.528,429.984 675.508,429.774 675.488,429.676C675.431,429.406 675.308,429.227 675.121,429.137C674.933,429.049 674.682,429.004 674.369,429.004L672.694,429.004ZM677.303,427.621C677.418,427.272 677.586,426.963 677.809,426.699C678.03,426.434 678.304,426.229 678.63,426.08C678.957,425.934 679.323,425.859 679.731,425.859C680.158,425.859 680.539,425.934 680.873,426.08C681.208,426.229 681.486,426.434 681.71,426.699C681.935,426.963 682.102,427.272 682.215,427.621C682.327,427.975 682.383,428.354 682.383,428.758C682.383,429.16 682.327,429.537 682.215,429.885C682.102,430.234 681.936,430.541 681.714,430.805C681.493,431.07 681.216,431.275 680.885,431.424C680.553,431.572 680.176,431.645 679.753,431.645C679.331,431.645 678.955,431.572 678.623,431.424C678.292,431.275 678.016,431.07 677.797,430.805C677.578,430.541 677.412,430.234 677.3,429.885C677.188,429.537 677.132,429.16 677.132,428.758C677.132,428.354 677.189,427.975 677.303,427.621M680.693,431.008C680.958,430.879 681.178,430.699 681.35,430.473C681.523,430.246 681.649,429.986 681.73,429.695C681.811,429.402 681.851,429.092 681.851,428.758C681.851,427.996 681.664,427.395 681.288,426.957C680.913,426.52 680.398,426.301 679.747,426.301C679.396,426.301 679.089,426.367 678.827,426.5C678.563,426.633 678.345,426.813 678.173,427.041C678,427.272 677.873,427.531 677.789,427.824C677.706,428.117 677.664,428.428 677.664,428.758C677.664,429.092 677.706,429.402 677.789,429.695C677.873,429.986 678,430.248 678.173,430.477C678.345,430.705 678.564,430.885 678.831,431.012C679.096,431.139 679.407,431.201 679.761,431.201C680.116,431.201 680.427,431.137 680.693,431.008M683.409,426.004L683.941,426.004L683.941,429.279C683.941,429.955 684.072,430.445 684.333,430.748C684.593,431.051 685.013,431.201 685.592,431.201C686.187,431.201 686.611,431.047 686.865,430.736C687.117,430.426 687.244,429.94 687.244,429.279L687.244,426.004L687.776,426.004L687.776,429.432C687.776,430.149 687.591,430.697 687.224,431.076C686.856,431.455 686.313,431.645 685.592,431.645C684.867,431.645 684.322,431.455 683.957,431.072C683.591,430.691 683.409,430.145 683.409,429.432L683.409,426.004ZM691.408,429.104L691.408,428.66L693.818,428.66L693.818,431.5L693.365,431.5L693.365,430.561C693.155,430.912 692.884,431.18 692.549,431.365C692.216,431.553 691.786,431.645 691.259,431.645C690.518,431.645 689.921,431.395 689.47,430.893C689.018,430.393 688.793,429.668 688.793,428.721C688.793,428.309 688.847,427.93 688.954,427.584C689.06,427.238 689.223,426.936 689.439,426.676C689.656,426.416 689.928,426.215 690.256,426.072C690.585,425.93 690.966,425.859 691.4,425.859C692.01,425.859 692.525,426.006 692.945,426.301C693.366,426.596 693.635,427.029 693.756,427.6L693.208,427.6C693.119,427.197 692.911,426.881 692.582,426.649C692.253,426.418 691.872,426.301 691.439,426.301C691.073,426.301 690.758,426.363 690.493,426.488C690.225,426.613 690.006,426.791 689.834,427.024C689.662,427.254 689.534,427.531 689.451,427.852C689.367,428.172 689.326,428.529 689.326,428.928C689.326,429.233 689.371,429.524 689.461,429.797C689.554,430.072 689.688,430.315 689.866,430.527C690.042,430.738 690.259,430.904 690.515,431.024C690.771,431.143 691.055,431.201 691.368,431.201C691.712,431.201 692.039,431.125 692.346,430.969C692.655,430.815 692.894,430.57 693.067,430.24C693.218,429.949 693.298,429.572 693.309,429.104L691.408,429.104ZM695.055,431.5L695.055,426.004L695.586,426.004L695.586,428.363L698.92,428.363L698.92,426.004L699.454,426.004L699.454,431.5L698.92,431.5L698.92,428.805L695.586,428.805L695.586,431.5L695.055,431.5ZM701.206,431.057L702.559,431.057C703.191,431.057 703.635,430.986 703.894,430.844C704.154,430.701 704.282,430.402 704.282,429.951C704.282,429.727 704.244,429.545 704.168,429.404C704.092,429.264 703.983,429.156 703.84,429.076C703.697,428.998 703.525,428.945 703.327,428.916C703.128,428.889 702.894,428.873 702.623,428.873L701.206,428.873L701.206,431.057ZM701.206,428.432L702.552,428.432C703.084,428.432 703.462,428.344 703.686,428.168C703.912,427.992 704.023,427.733 704.023,427.387C704.023,427.039 703.905,426.797 703.667,426.656C703.431,426.516 703.019,426.445 702.435,426.445L701.206,426.445L701.206,428.432ZM700.674,431.5L700.674,426.004L702.708,426.004C703.345,426.004 703.812,426.125 704.11,426.371C704.407,426.613 704.556,426.953 704.556,427.387C704.556,427.742 704.469,428.018 704.297,428.215C704.125,428.41 703.912,428.529 703.656,428.568L703.656,428.584C704.037,428.641 704.326,428.789 704.521,429.031C704.716,429.272 704.814,429.58 704.814,429.951C704.814,430.231 704.77,430.471 704.681,430.668C704.592,430.865 704.466,431.027 704.305,431.149C704.142,431.272 703.951,431.361 703.726,431.416C703.502,431.471 703.252,431.5 702.975,431.5L700.674,431.5ZM708.039,428.561C708.461,428.561 708.8,428.471 709.057,428.289C709.312,428.109 709.439,427.836 709.439,427.469C709.439,427.272 709.404,427.104 709.331,426.971C709.257,426.834 709.158,426.729 709.033,426.652C708.908,426.576 708.763,426.524 708.598,426.492C708.435,426.461 708.258,426.445 708.07,426.445L706.379,426.445L706.379,428.561L708.039,428.561ZM706.379,429.004L706.379,431.5L705.847,431.5L705.847,426.004L708.054,426.004C708.686,426.004 709.164,426.119 709.487,426.352C709.811,426.582 709.972,426.947 709.972,427.447C709.972,427.793 709.902,428.068 709.76,428.272C709.62,428.475 709.384,428.649 709.057,428.791C709.218,428.842 709.347,428.918 709.444,429.024C709.54,429.127 709.611,429.246 709.655,429.379C709.699,429.51 709.729,429.647 709.745,429.787C709.76,429.926 709.771,430.09 709.776,430.277C709.787,430.676 709.811,430.955 709.846,431.119C709.883,431.281 709.938,431.391 710.011,431.445L710.011,431.5L709.424,431.5C709.362,431.393 709.316,431.242 709.291,431.047C709.264,430.85 709.245,430.604 709.229,430.309C709.212,429.984 709.194,429.774 709.173,429.676C709.116,429.406 708.994,429.227 708.806,429.137C708.618,429.049 708.369,429.004 708.054,429.004L706.379,429.004ZM711.036,431.5L711.036,426.004L714.786,426.004L714.786,426.445L711.569,426.445L711.569,428.432L714.473,428.432L714.473,428.873L711.569,428.873L711.569,431.057L714.863,431.057L714.863,431.5L711.036,431.5ZM715.779,431.5L715.779,426.004L717.705,426.004C718.085,426.004 718.41,426.031 718.678,426.084C718.948,426.137 719.203,426.248 719.442,426.416C719.619,426.539 719.769,426.693 719.892,426.883C720.014,427.068 720.112,427.272 720.182,427.484C720.252,427.699 720.304,427.912 720.333,428.125C720.366,428.34 720.381,428.545 720.381,428.744C720.381,429.147 720.328,429.531 720.221,429.897C720.114,430.264 719.941,430.574 719.701,430.828C719.465,431.088 719.182,431.266 718.851,431.359C718.519,431.453 718.137,431.5 717.705,431.5L715.779,431.5ZM716.312,431.057L717.586,431.057C717.864,431.057 718.103,431.041 718.307,431.008C718.51,430.975 718.711,430.906 718.91,430.805C719.087,430.715 719.239,430.594 719.364,430.443C719.49,430.293 719.587,430.123 719.658,429.936C719.728,429.748 719.778,429.553 719.806,429.356C719.834,429.156 719.849,428.953 719.849,428.744C719.849,428.531 719.834,428.322 719.806,428.119C719.778,427.914 719.726,427.721 719.654,427.535C719.58,427.35 719.48,427.18 719.351,427.027C719.223,426.875 719.066,426.75 718.879,426.652C718.727,426.572 718.543,426.516 718.327,426.488C718.111,426.461 717.864,426.445 717.586,426.445L716.312,426.445L716.312,431.057Z" style="fill:rgb(188,190,192);fill-rule:nonzero;"/>
        <rect x="723.234" y="424.586" width="0.477" height="8.029" style="fill:rgb(188,190,192);fill-rule:nonzero;"/>
        <path d="M727.04,431.5L727.04,426.004L729.099,426.004C729.453,426.004 729.751,426.043 729.991,426.123C730.231,426.201 730.419,426.311 730.559,426.451C730.696,426.59 730.794,426.752 730.852,426.936C730.909,427.117 730.937,427.318 730.937,427.537C730.937,427.832 730.877,428.082 730.758,428.283C730.638,428.484 730.475,428.641 730.269,428.756C730.062,428.871 729.833,428.951 729.58,429C729.327,429.049 729.06,429.072 728.778,429.072L727.572,429.072L727.572,431.5L727.04,431.5ZM728.794,428.631C729.06,428.631 729.29,428.613 729.481,428.58C729.676,428.547 729.841,428.488 729.978,428.408C730.117,428.326 730.223,428.213 730.296,428.066C730.368,427.918 730.405,427.729 730.405,427.5C730.405,427.148 730.286,426.887 730.05,426.709C729.812,426.533 729.446,426.445 728.951,426.445L727.572,426.445L727.572,428.631L728.794,428.631ZM730.711,431.5L732.926,426.004L733.527,426.004L735.687,431.5L735.14,431.5L734.489,429.775L731.923,429.775L731.258,431.5L730.711,431.5ZM732.103,429.332L734.311,429.332L733.207,426.445L732.103,429.332ZM738.591,428.561C739.015,428.561 739.353,428.471 739.608,428.291C739.863,428.109 739.992,427.836 739.992,427.469C739.992,427.271 739.955,427.104 739.882,426.971C739.81,426.834 739.711,426.729 739.585,426.652C739.46,426.576 739.314,426.523 739.15,426.492C738.986,426.461 738.81,426.445 738.623,426.445L736.932,426.445L736.932,428.561L738.591,428.561ZM736.932,429.004L736.932,431.5L736.399,431.5L736.399,426.004L738.606,426.004C739.238,426.004 739.716,426.119 740.039,426.352C740.361,426.582 740.524,426.947 740.524,427.447C740.524,427.793 740.454,428.068 740.312,428.271C740.172,428.475 739.936,428.648 739.608,428.789C739.769,428.842 739.899,428.918 739.996,429.023C740.092,429.127 740.162,429.246 740.207,429.377C740.251,429.51 740.281,429.646 740.296,429.787C740.312,429.926 740.322,430.09 740.328,430.279C740.339,430.676 740.361,430.955 740.399,431.119C740.435,431.281 740.489,431.391 740.561,431.445L740.561,431.5L739.977,431.5C739.914,431.393 739.869,431.242 739.843,431.047C739.816,430.852 739.796,430.605 739.78,430.311C739.765,429.984 739.746,429.773 739.726,429.676C739.669,429.404 739.545,429.227 739.357,429.137C739.17,429.049 738.92,429.004 738.606,429.004L736.932,429.004ZM740.938,426.004L745.038,426.004L745.038,426.445L743.255,426.445L743.255,431.5L742.723,431.5L742.723,426.445L740.938,426.445L740.938,426.004ZM746.291,426.705L746.275,426.705L746.275,431.5L745.743,431.5L745.743,426.004L746.347,426.004L749.602,430.805L749.617,430.805L749.617,426.004L750.15,426.004L750.15,431.5L749.531,431.5L746.291,426.705ZM751.37,431.5L751.37,426.004L755.118,426.004L755.118,426.445L751.902,426.445L751.902,428.432L754.806,428.432L754.806,428.873L751.902,428.873L751.902,431.057L755.196,431.057L755.196,431.5L751.37,431.5ZM758.295,428.561C758.718,428.561 759.057,428.471 759.311,428.291C759.568,428.109 759.696,427.836 759.696,427.469C759.696,427.271 759.659,427.104 759.586,426.971C759.514,426.834 759.415,426.729 759.289,426.652C759.165,426.576 759.02,426.523 758.855,426.492C758.69,426.461 758.515,426.445 758.326,426.445L756.637,426.445L756.637,428.561L758.295,428.561ZM756.637,429.004L756.637,431.5L756.104,431.5L756.104,426.004L758.311,426.004C758.942,426.004 759.42,426.119 759.744,426.352C760.066,426.582 760.228,426.947 760.228,427.447C760.228,427.793 760.158,428.068 760.018,428.271C759.877,428.475 759.642,428.648 759.311,428.789C759.475,428.842 759.603,428.918 759.701,429.023C759.797,429.127 759.867,429.246 759.912,429.377C759.956,429.51 759.985,429.646 760.001,429.787C760.018,429.926 760.027,430.09 760.033,430.279C760.043,430.676 760.066,430.955 760.103,431.119C760.14,431.281 760.194,431.391 760.267,431.445L760.267,431.5L759.681,431.5C759.618,431.393 759.573,431.242 759.547,431.047C759.521,430.852 759.501,430.605 759.485,430.311C759.47,429.984 759.451,429.773 759.43,429.676C759.372,429.404 759.25,429.227 759.062,429.137C758.874,429.049 758.624,429.004 758.311,429.004L756.637,429.004ZM761.512,429.857C761.554,430.326 761.719,430.668 762.004,430.881C762.291,431.096 762.667,431.201 763.131,431.201C763.606,431.201 763.964,431.094 764.203,430.879C764.443,430.662 764.563,430.391 764.563,430.064C764.563,429.877 764.521,429.717 764.438,429.584C764.355,429.451 764.244,429.346 764.102,429.264C763.962,429.182 763.808,429.117 763.641,429.068C763.473,429.02 763.258,428.965 762.998,428.904C762.69,428.834 762.44,428.768 762.246,428.705C762.054,428.645 761.871,428.561 761.7,428.453C761.528,428.348 761.389,428.201 761.284,428.016C761.18,427.83 761.129,427.602 761.129,427.332C761.129,426.924 761.296,426.578 761.633,426.289C761.969,426.002 762.437,425.859 763.037,425.859C763.643,425.859 764.11,426.014 764.438,426.324C764.768,426.635 764.931,427.027 764.931,427.5L764.422,427.5C764.422,427.104 764.29,426.805 764.023,426.604C763.758,426.402 763.429,426.301 763.037,426.301C762.579,426.301 762.231,426.404 761.997,426.611C761.761,426.816 761.645,427.064 761.645,427.355C761.645,427.406 761.65,427.459 761.66,427.516C761.686,427.668 761.745,427.795 761.838,427.896C761.928,427.998 762.041,428.084 762.177,428.152C762.312,428.221 762.456,428.275 762.607,428.316C762.758,428.357 762.955,428.404 763.194,428.453C763.512,428.52 763.769,428.582 763.962,428.641C764.153,428.699 764.339,428.783 764.517,428.893C764.693,429.002 764.836,429.15 764.939,429.34C765.043,429.527 765.096,429.762 765.096,430.041C765.096,430.545 764.915,430.939 764.553,431.221C764.189,431.504 763.685,431.645 763.037,431.645C762.428,431.645 761.935,431.492 761.56,431.184C761.184,430.875 760.995,430.434 760.995,429.857L761.512,429.857Z" style="fill:rgb(188,190,192);fill-rule:nonzero;"/>
    </g>
</svg>
