<?xml version="1.0" encoding="UTF-8"?>
<svg width="236px" height="110px" viewBox="0 0 236 110" version="1.1" xmlns="http://www.w3.org/2000/svg" xmlns:xlink="http://www.w3.org/1999/xlink">
    <!-- Generator: Sketch 58 (84663) - https://sketch.com -->
    <title>HV</title>
    <desc>Created with Sketch.</desc>
    <g id="Logo" stroke="none" stroke-width="1" fill="none" fill-rule="evenodd">
        <g id="Artboard" transform="translate(-37.000000, -100.000000)" fill="#FFFFFF" fill-rule="nonzero">
            <path d="M152.376923,210 L108.376923,210 L108.376923,193.923077 L121.069231,193.923077 L121.069231,162.107692 L69.1153846,162.107692 L69.1153846,193.923077 L81.6384615,193.923077 L81.6384615,210 L37.6384615,210 L37.6384615,193.923077 L50.3307692,193.923077 L50.3307692,116.076923 L37.6384615,116.076923 L37.6384615,100 L81.6384615,100 L81.6384615,116.076923 L69.1153846,116.076923 L69.1153846,146.2 L121.069231,146.2 L121.069231,116.076923 L108.376923,116.076923 L108.376923,100 L152.376923,100 L152.376923,116.076923 L139.853846,116.076923 L139.853846,193.923077 L152.376923,193.923077 L152.376923,210 Z M272.361538,116.076923 L262.207692,116.076923 L222.946154,210 L209.407692,210 L170.146154,116.076923 L159.653846,116.076923 L159.653846,100 L202.976923,100 L202.976923,116.076923 L190.792308,116.076923 L216.853846,181.230769 L217.7,181.230769 L243.084615,116.076923 L230.730769,116.076923 L230.730769,100 L272.361538,100 L272.361538,116.076923 Z" id="HV"></path>
        </g>
    </g>
</svg>