<?xml version="1.0" encoding="UTF-8"?>
<svg width="666px" height="759px" viewBox="0 0 666 759" version="1.1" xmlns="http://www.w3.org/2000/svg" xmlns:xlink="http://www.w3.org/1999/xlink">
    <!-- Generator: Sketch 52.5 (67469) - http://www.bohemiancoding.com/sketch -->
    <title>Combined Shape</title>
    <desc>Created with Sketch.</desc>
    <g id="Page-1" stroke="none" stroke-width="1" fill="none" fill-rule="evenodd">
        <path d="M178.026508,46.4416979 C190.851029,46.4416979 201.247357,56.8380261 201.247357,69.6625468 L201.247357,611.482355 C201.247357,624.306876 190.851029,634.703204 178.026508,634.703204 C165.201988,634.703204 154.80566,624.306876 154.80566,611.482355 L154.80566,69.6625468 C154.80566,56.8380261 165.201988,46.4416979 178.026508,46.4416979 Z M100.623679,123.844528 C113.448199,123.844528 123.844528,134.240856 123.844528,147.065377 L123.844528,441.19613 C123.844528,454.02065 113.448199,464.416979 100.623679,464.416979 C87.799158,464.416979 77.4028298,454.02065 77.4028298,441.19613 L77.4028298,147.065377 C77.4028298,134.240856 87.799158,123.844528 100.623679,123.844528 Z M23.2208489,154.80566 C36.0453697,154.80566 46.4416979,165.201988 46.4416979,178.026508 L46.4416979,379.273866 C46.4416979,392.098387 36.0453697,402.494715 23.2208489,402.494715 C10.3963282,402.494715 -1.98216285e-15,392.098387 -3.55271368e-15,379.273866 L0,178.026508 C-1.57055083e-15,165.201988 10.3963282,154.80566 23.2208489,154.80566 Z M255.429338,108.363962 C268.253859,108.363962 278.650187,118.76029 278.650187,131.584811 L278.650187,565.040657 C278.650187,577.865178 268.253859,588.261506 255.429338,588.261506 C242.604818,588.261506 232.208489,577.865178 232.208489,565.040657 L232.208489,131.584811 C232.208489,118.76029 242.604818,108.363962 255.429338,108.363962 Z M332.832168,154.80566 C345.656689,154.80566 356.053017,165.201988 356.053017,178.026508 L356.053017,735.326883 C356.053017,748.151404 345.656689,758.547732 332.832168,758.547732 C320.007647,758.547732 309.611319,748.151404 309.611319,735.326883 L309.611319,178.026508 C309.611319,165.201988 320.007647,154.80566 332.832168,154.80566 Z M410.234998,77.4028298 C423.059519,77.4028298 433.455847,87.799158 433.455847,100.623679 L433.455847,596.001789 C433.455847,608.82631 423.059519,619.222638 410.234998,619.222638 C397.410477,619.222638 387.014149,608.82631 387.014149,596.001789 L387.014149,100.623679 C387.014149,87.799158 397.410477,77.4028298 410.234998,77.4028298 Z M487.637828,0 C500.462348,-2.35582624e-15 510.858677,10.3963282 510.858677,23.2208489 L510.858677,518.598959 C510.858677,531.42348 500.462348,541.819808 487.637828,541.819808 C474.813307,541.819808 464.416979,531.42348 464.416979,518.598959 L464.416979,23.2208489 C464.416979,10.3963282 474.813307,2.35582624e-15 487.637828,0 Z M565.040657,46.4416979 C577.865178,46.4416979 588.261506,56.8380261 588.261506,69.6625468 L588.261506,441.19613 C588.261506,454.02065 577.865178,464.416979 565.040657,464.416979 C552.216137,464.416979 541.819808,454.02065 541.819808,441.19613 L541.819808,69.6625468 C541.819808,56.8380261 552.216137,46.4416979 565.040657,46.4416979 Z M642.443487,185.766791 C655.268008,185.766791 665.664336,196.16312 665.664336,208.98764 L665.664336,394.754432 C665.664336,407.578953 655.268008,417.975281 642.443487,417.975281 C629.618966,417.975281 619.222638,407.578953 619.222638,394.754432 L619.222638,208.98764 C619.222638,196.16312 629.618966,185.766791 642.443487,185.766791 Z" id="Combined-Shape" fill="#FFFFFF"></path>
    </g>
</svg>