<svg width="32" height="32" viewBox="0 0 32 32" fill="none" xmlns="http://www.w3.org/2000/svg">
<g clip-path="url(#clip0_78_1524)">
<path fill-rule="evenodd" clip-rule="evenodd" d="M23.7318 6.32669C19.4617 2.05657 12.5384 2.05657 8.26828 6.32669C3.99816 10.5968 3.99816 17.5201 8.26828 21.7902L14.8968 28.4187C15.5064 29.0283 16.4935 29.0285 17.1039 28.4181L23.7318 21.7902C28.0019 17.5201 28.0019 10.5968 23.7318 6.32669ZM6.05921 4.11762C11.5494 -1.37254 20.4507 -1.37254 25.9408 4.11762C31.431 9.60779 31.431 18.5091 25.9408 23.9993L19.313 30.6271C17.4834 32.4567 14.5182 32.4583 12.6877 30.6278L6.05921 23.9993C0.569049 18.5091 0.569049 9.60779 6.05921 4.11762ZM16 10.9343C14.2746 10.9343 12.8759 12.333 12.8759 14.0584C12.8759 15.7838 14.2746 17.1825 16 17.1825C17.7254 17.1825 19.1241 15.7838 19.1241 14.0584C19.1241 12.333 17.7254 10.9343 16 10.9343ZM9.75183 14.0584C9.75183 10.6077 12.5492 7.81025 16 7.81025C19.4508 7.81025 22.2482 10.6077 22.2482 14.0584C22.2482 17.5092 19.4508 20.3066 16 20.3066C12.5492 20.3066 9.75183 17.5092 9.75183 14.0584Z" fill="#CBD5E1"/>
</g>
<defs>
<clipPath id="clip0_78_1524">
<rect width="32" height="32" fill="white"/>
</clipPath>
</defs>
</svg>
